<?xml version="1.0" encoding="utf-8" standalone="no"?>
<!DOCTYPE svg PUBLIC "-//W3C//DTD SVG 1.1//EN"
  "http://www.w3.org/Graphics/SVG/1.1/DTD/svg11.dtd">
<!-- Created with matplotlib (https://matplotlib.org/) -->
<svg height="252pt" version="1.1" viewBox="0 0 432 252" width="432pt" xmlns="http://www.w3.org/2000/svg" xmlns:xlink="http://www.w3.org/1999/xlink">
 <metadata>
  <rdf:RDF xmlns:cc="http://creativecommons.org/ns#" xmlns:dc="http://purl.org/dc/elements/1.1/" xmlns:rdf="http://www.w3.org/1999/02/22-rdf-syntax-ns#">
   <cc:Work>
    <dc:type rdf:resource="http://purl.org/dc/dcmitype/StillImage"/>
    <dc:date>2020-11-13T11:27:32.744766</dc:date>
    <dc:format>image/svg+xml</dc:format>
    <dc:creator>
     <cc:Agent>
      <dc:title>Matplotlib v3.3.1, https://matplotlib.org/</dc:title>
     </cc:Agent>
    </dc:creator>
   </cc:Work>
  </rdf:RDF>
 </metadata>
 <defs>
  <style type="text/css">*{stroke-linecap:butt;stroke-linejoin:round;}</style>
 </defs>
 <g id="figure_1">
  <g id="patch_1">
   <path d="M 0 252 
L 432 252 
L 432 0 
L 0 0 
z
" style="fill:#ffffff;"/>
  </g>
  <g id="axes_1">
   <g id="patch_2">
    <path d="M 144.048738 71.26875 
L 410.4 71.26875 
L 410.4 12.6 
L 144.048738 12.6 
z
" style="fill:#ffffff;"/>
   </g>
   <g id="patch_3">
    <path clip-path="url(#p99273c7018)" d="M 166.822465 93.269531 
L 170.555862 93.269531 
L 170.555862 58.536238 
L 166.822465 58.536238 
z
" style="fill:#1a33e6;fill-opacity:0.3;"/>
   </g>
   <g id="patch_4">
    <path clip-path="url(#p99273c7018)" d="M 177.489315 93.269531 
L 181.222713 93.269531 
L 181.222713 49.219024 
L 177.489315 49.219024 
z
" style="fill:#1a33e6;fill-opacity:0.3;"/>
   </g>
   <g id="patch_5">
    <path clip-path="url(#p99273c7018)" d="M 220.156718 93.269531 
L 223.890116 93.269531 
L 223.890116 34.356485 
L 220.156718 34.356485 
z
" style="fill:#1a33e6;fill-opacity:0.3;"/>
   </g>
   <g id="patch_6">
    <path clip-path="url(#p99273c7018)" d="M 326.825225 93.269531 
L 330.558623 93.269531 
L 330.558623 21.037924 
L 326.825225 21.037924 
z
" style="fill:#1a33e6;fill-opacity:0.3;"/>
   </g>
   <g id="patch_7">
    <path clip-path="url(#p99273c7018)" d="M 337.492076 93.269531 
L 341.225473 93.269531 
L 341.225473 21.516405 
L 337.492076 21.516405 
z
" style="fill:#1a33e6;fill-opacity:0.3;"/>
   </g>
   <g id="patch_8">
    <path clip-path="url(#p99273c7018)" d="M 358.825777 93.269531 
L 362.559175 93.269531 
L 362.559175 31.653755 
L 358.825777 31.653755 
z
" style="fill:#1a33e6;fill-opacity:0.3;"/>
   </g>
   <g id="patch_9">
    <path clip-path="url(#p99273c7018)" d="M 369.492628 93.269531 
L 373.226025 93.269531 
L 373.226025 20.249097 
L 369.492628 20.249097 
z
" style="fill:#1a33e6;fill-opacity:0.3;"/>
   </g>
   <g id="patch_10">
    <path clip-path="url(#p99273c7018)" d="M 380.159478 93.269531 
L 383.892876 93.269531 
L 383.892876 20.102767 
L 380.159478 20.102767 
z
" style="fill:#1a33e6;fill-opacity:0.3;"/>
   </g>
   <g id="patch_11">
    <path clip-path="url(#p99273c7018)" d="M 390.826329 93.269531 
L 394.559727 93.269531 
L 394.559727 20.016006 
L 390.826329 20.016006 
z
" style="fill:#1a33e6;fill-opacity:0.3;"/>
   </g>
   <g id="patch_12">
    <path clip-path="url(#p99273c7018)" d="M 156.155614 93.269531 
L 159.889012 93.269531 
L 159.889012 37.046322 
L 156.155614 37.046322 
z
" style="fill:#e61a00;fill-opacity:0.3;"/>
   </g>
   <g id="patch_13">
    <path clip-path="url(#p99273c7018)" d="M 188.156166 93.269531 
L 191.889564 93.269531 
L 191.889564 21.50113 
L 188.156166 21.50113 
z
" style="fill:#e61a00;fill-opacity:0.3;"/>
   </g>
   <g id="patch_14">
    <path clip-path="url(#p99273c7018)" d="M 198.823017 93.269531 
L 202.556414 93.269531 
L 202.556414 24.143988 
L 198.823017 24.143988 
z
" style="fill:#e61a00;fill-opacity:0.3;"/>
   </g>
   <g id="patch_15">
    <path clip-path="url(#p99273c7018)" d="M 209.489867 93.269531 
L 213.223265 93.269531 
L 213.223265 42.518533 
L 209.489867 42.518533 
z
" style="fill:#e61a00;fill-opacity:0.3;"/>
   </g>
   <g id="patch_16">
    <path clip-path="url(#p99273c7018)" d="M 230.823569 93.269531 
L 234.556967 93.269531 
L 234.556967 32.471928 
L 230.823569 32.471928 
z
" style="fill:#e61a00;fill-opacity:0.3;"/>
   </g>
   <g id="patch_17">
    <path clip-path="url(#p99273c7018)" d="M 241.490419 93.269531 
L 245.223817 93.269531 
L 245.223817 20.97888 
L 241.490419 20.97888 
z
" style="fill:#e61a00;fill-opacity:0.3;"/>
   </g>
   <g id="patch_18">
    <path clip-path="url(#p99273c7018)" d="M 252.15727 93.269531 
L 255.890668 93.269531 
L 255.890668 20.253508 
L 252.15727 20.253508 
z
" style="fill:#e61a00;fill-opacity:0.3;"/>
   </g>
   <g id="patch_19">
    <path clip-path="url(#p99273c7018)" d="M 262.824121 93.269531 
L 266.557519 93.269531 
L 266.557519 20.155826 
L 262.824121 20.155826 
z
" style="fill:#e61a00;fill-opacity:0.3;"/>
   </g>
   <g id="patch_20">
    <path clip-path="url(#p99273c7018)" d="M 273.490971 93.269531 
L 277.224369 93.269531 
L 277.224369 35.545912 
L 273.490971 35.545912 
z
" style="fill:#e61a00;fill-opacity:0.3;"/>
   </g>
   <g id="patch_21">
    <path clip-path="url(#p99273c7018)" d="M 294.824673 93.269531 
L 298.558071 93.269531 
L 298.558071 20.225793 
L 294.824673 20.225793 
z
" style="fill:#e61a00;fill-opacity:0.3;"/>
   </g>
   <g id="patch_22">
    <path clip-path="url(#p99273c7018)" d="M 305.491524 93.269531 
L 309.224921 93.269531 
L 309.224921 20.860527 
L 305.491524 20.860527 
z
" style="fill:#e61a00;fill-opacity:0.3;"/>
   </g>
   <g id="patch_23">
    <path clip-path="url(#p99273c7018)" d="M 316.158374 93.269531 
L 319.891772 93.269531 
L 319.891772 21.006926 
L 316.158374 21.006926 
z
" style="fill:#e61a00;fill-opacity:0.3;"/>
   </g>
   <g id="patch_24">
    <path clip-path="url(#p99273c7018)" d="M 284.157822 93.269531 
L 287.89122 93.269531 
L 287.89122 27.699782 
L 284.157822 27.699782 
z
" style="fill:#00cc33;fill-opacity:0.3;"/>
   </g>
   <g id="patch_25">
    <path clip-path="url(#p99273c7018)" d="M 348.158926 93.269531 
L 351.892324 93.269531 
L 351.892324 20.474988 
L 348.158926 20.474988 
z
" style="fill:#00cc33;fill-opacity:0.3;"/>
   </g>
   <g id="patch_26">
    <path clip-path="url(#p99273c7018)" d="M 170.555862 93.269531 
L 174.28926 93.269531 
L 174.28926 54.248518 
L 170.555862 54.248518 
z
" style="fill:#1a33e6;"/>
   </g>
   <g id="patch_27">
    <path clip-path="url(#p99273c7018)" d="M 181.222713 93.269531 
L 184.956111 93.269531 
L 184.956111 45.501264 
L 181.222713 45.501264 
z
" style="fill:#1a33e6;"/>
   </g>
   <g id="patch_28">
    <path clip-path="url(#p99273c7018)" d="M 223.890116 93.269531 
L 227.623514 93.269531 
L 227.623514 39.932781 
L 223.890116 39.932781 
z
" style="fill:#1a33e6;"/>
   </g>
   <g id="patch_29">
    <path clip-path="url(#p99273c7018)" d="M 330.558623 93.269531 
L 334.29202 93.269531 
L 334.29202 21.02432 
L 330.558623 21.02432 
z
" style="fill:#1a33e6;"/>
   </g>
   <g id="patch_30">
    <path clip-path="url(#p99273c7018)" d="M 341.225473 93.269531 
L 344.958871 93.269531 
L 344.958871 21.187987 
L 341.225473 21.187987 
z
" style="fill:#1a33e6;"/>
   </g>
   <g id="patch_31">
    <path clip-path="url(#p99273c7018)" d="M 362.559175 93.269531 
L 366.292572 93.269531 
L 366.292572 28.255398 
L 362.559175 28.255398 
z
" style="fill:#1a33e6;"/>
   </g>
   <g id="patch_32">
    <path clip-path="url(#p99273c7018)" d="M 373.226025 93.269531 
L 376.959423 93.269531 
L 376.959423 20.476181 
L 373.226025 20.476181 
z
" style="fill:#1a33e6;"/>
   </g>
   <g id="patch_33">
    <path clip-path="url(#p99273c7018)" d="M 383.892876 93.269531 
L 387.626274 93.269531 
L 387.626274 20.066752 
L 383.892876 20.066752 
z
" style="fill:#1a33e6;"/>
   </g>
   <g id="patch_34">
    <path clip-path="url(#p99273c7018)" d="M 394.559727 93.269531 
L 398.293124 93.269531 
L 398.293124 19.992602 
L 394.559727 19.992602 
z
" style="fill:#1a33e6;"/>
   </g>
   <g id="patch_35">
    <path clip-path="url(#p99273c7018)" d="M 159.889012 93.269531 
L 163.622409 93.269531 
L 163.622409 35.484616 
L 159.889012 35.484616 
z
" style="fill:#e61a00;"/>
   </g>
   <g id="patch_36">
    <path clip-path="url(#p99273c7018)" d="M 191.889564 93.269531 
L 195.622962 93.269531 
L 195.622962 22.430031 
L 191.889564 22.430031 
z
" style="fill:#e61a00;"/>
   </g>
   <g id="patch_37">
    <path clip-path="url(#p99273c7018)" d="M 202.556414 93.269531 
L 206.289812 93.269531 
L 206.289812 27.265996 
L 202.556414 27.265996 
z
" style="fill:#e61a00;"/>
   </g>
   <g id="patch_38">
    <path clip-path="url(#p99273c7018)" d="M 213.223265 93.269531 
L 216.956663 93.269531 
L 216.956663 36.015424 
L 213.223265 36.015424 
z
" style="fill:#e61a00;"/>
   </g>
   <g id="patch_39">
    <path clip-path="url(#p99273c7018)" d="M 234.556967 93.269531 
L 238.290364 93.269531 
L 238.290364 31.368032 
L 234.556967 31.368032 
z
" style="fill:#e61a00;"/>
   </g>
   <g id="patch_40">
    <path clip-path="url(#p99273c7018)" d="M 245.223817 93.269531 
L 248.957215 93.269531 
L 248.957215 21.85465 
L 245.223817 21.85465 
z
" style="fill:#e61a00;"/>
   </g>
   <g id="patch_41">
    <path clip-path="url(#p99273c7018)" d="M 255.890668 93.269531 
L 259.624066 93.269531 
L 259.624066 20.2165 
L 255.890668 20.2165 
z
" style="fill:#e61a00;"/>
   </g>
   <g id="patch_42">
    <path clip-path="url(#p99273c7018)" d="M 266.557519 93.269531 
L 270.290916 93.269531 
L 270.290916 20.112577 
L 266.557519 20.112577 
z
" style="fill:#e61a00;"/>
   </g>
   <g id="patch_43">
    <path clip-path="url(#p99273c7018)" d="M 277.224369 93.269531 
L 280.957767 93.269531 
L 280.957767 31.126151 
L 277.224369 31.126151 
z
" style="fill:#e61a00;"/>
   </g>
   <g id="patch_44">
    <path clip-path="url(#p99273c7018)" d="M 298.558071 93.269531 
L 302.291468 93.269531 
L 302.291468 20.170277 
L 298.558071 20.170277 
z
" style="fill:#e61a00;"/>
   </g>
   <g id="patch_45">
    <path clip-path="url(#p99273c7018)" d="M 309.224921 93.269531 
L 312.958319 93.269531 
L 312.958319 20.907963 
L 309.224921 20.907963 
z
" style="fill:#e61a00;"/>
   </g>
   <g id="patch_46">
    <path clip-path="url(#p99273c7018)" d="M 319.891772 93.269531 
L 323.62517 93.269531 
L 323.62517 20.998447 
L 319.891772 20.998447 
z
" style="fill:#e61a00;"/>
   </g>
   <g id="patch_47">
    <path clip-path="url(#p99273c7018)" d="M 287.89122 93.269531 
L 291.624618 93.269531 
L 291.624618 25.434978 
L 287.89122 25.434978 
z
" style="fill:#00cc33;"/>
   </g>
   <g id="patch_48">
    <path clip-path="url(#p99273c7018)" d="M 351.892324 93.269531 
L 355.625722 93.269531 
L 355.625722 20.437263 
L 351.892324 20.437263 
z
" style="fill:#00cc33;"/>
   </g>
   <g id="matplotlib.axis_1"/>
   <g id="matplotlib.axis_2">
    <g id="ytick_1">
     <g id="line2d_1">
      <defs>
       <path d="M 0 0 
L 3.5 0 
" id="mf7136915ad" style="stroke:#000000;stroke-width:0.8;"/>
      </defs>
      <g>
       <use style="stroke:#000000;stroke-width:0.8;" x="410.4" xlink:href="#mf7136915ad" y="56.601563"/>
      </g>
     </g>
     <g id="text_1">
      <!-- 50 -->
      <g transform="translate(417.4 58.501172)scale(0.05 -0.05)">
       <defs>
        <path d="M 10.796875 72.90625 
L 49.515625 72.90625 
L 49.515625 64.59375 
L 19.828125 64.59375 
L 19.828125 46.734375 
Q 21.96875 47.46875 24.109375 47.828125 
Q 26.265625 48.1875 28.421875 48.1875 
Q 40.625 48.1875 47.75 41.5 
Q 54.890625 34.8125 54.890625 23.390625 
Q 54.890625 11.625 47.5625 5.09375 
Q 40.234375 -1.421875 26.90625 -1.421875 
Q 22.3125 -1.421875 17.546875 -0.640625 
Q 12.796875 0.140625 7.71875 1.703125 
L 7.71875 11.625 
Q 12.109375 9.234375 16.796875 8.0625 
Q 21.484375 6.890625 26.703125 6.890625 
Q 35.15625 6.890625 40.078125 11.328125 
Q 45.015625 15.765625 45.015625 23.390625 
Q 45.015625 31 40.078125 35.4375 
Q 35.15625 39.890625 26.703125 39.890625 
Q 22.75 39.890625 18.8125 39.015625 
Q 14.890625 38.140625 10.796875 36.28125 
z
" id="DejaVuSans-53"/>
        <path d="M 31.78125 66.40625 
Q 24.171875 66.40625 20.328125 58.90625 
Q 16.5 51.421875 16.5 36.375 
Q 16.5 21.390625 20.328125 13.890625 
Q 24.171875 6.390625 31.78125 6.390625 
Q 39.453125 6.390625 43.28125 13.890625 
Q 47.125 21.390625 47.125 36.375 
Q 47.125 51.421875 43.28125 58.90625 
Q 39.453125 66.40625 31.78125 66.40625 
z
M 31.78125 74.21875 
Q 44.046875 74.21875 50.515625 64.515625 
Q 56.984375 54.828125 56.984375 36.375 
Q 56.984375 17.96875 50.515625 8.265625 
Q 44.046875 -1.421875 31.78125 -1.421875 
Q 19.53125 -1.421875 13.0625 8.265625 
Q 6.59375 17.96875 6.59375 36.375 
Q 6.59375 54.828125 13.0625 64.515625 
Q 19.53125 74.21875 31.78125 74.21875 
z
" id="DejaVuSans-48"/>
       </defs>
       <use xlink:href="#DejaVuSans-53"/>
       <use x="63.623047" xlink:href="#DejaVuSans-48"/>
      </g>
     </g>
    </g>
    <g id="ytick_2">
     <g id="line2d_2">
      <g>
       <use style="stroke:#000000;stroke-width:0.8;" x="410.4" xlink:href="#mf7136915ad" y="38.267578"/>
      </g>
     </g>
     <g id="text_2">
      <!-- 75 -->
      <g transform="translate(417.4 40.167188)scale(0.05 -0.05)">
       <defs>
        <path d="M 8.203125 72.90625 
L 55.078125 72.90625 
L 55.078125 68.703125 
L 28.609375 0 
L 18.3125 0 
L 43.21875 64.59375 
L 8.203125 64.59375 
z
" id="DejaVuSans-55"/>
       </defs>
       <use xlink:href="#DejaVuSans-55"/>
       <use x="63.623047" xlink:href="#DejaVuSans-53"/>
      </g>
     </g>
    </g>
    <g id="ytick_3">
     <g id="line2d_3">
      <g>
       <use style="stroke:#000000;stroke-width:0.8;" x="410.4" xlink:href="#mf7136915ad" y="19.933594"/>
      </g>
     </g>
     <g id="text_3">
      <!-- 100 -->
      <g transform="translate(417.4 21.833203)scale(0.05 -0.05)">
       <defs>
        <path d="M 12.40625 8.296875 
L 28.515625 8.296875 
L 28.515625 63.921875 
L 10.984375 60.40625 
L 10.984375 69.390625 
L 28.421875 72.90625 
L 38.28125 72.90625 
L 38.28125 8.296875 
L 54.390625 8.296875 
L 54.390625 0 
L 12.40625 0 
z
" id="DejaVuSans-49"/>
       </defs>
       <use xlink:href="#DejaVuSans-49"/>
       <use x="63.623047" xlink:href="#DejaVuSans-48"/>
       <use x="127.246094" xlink:href="#DejaVuSans-48"/>
      </g>
     </g>
    </g>
   </g>
   <g id="line2d_4">
    <path clip-path="url(#p99273c7018)" d="M 144.048738 56.601563 
L 410.4 56.601563 
" style="fill:none;stroke:#4c4c59;stroke-dasharray:1.85,0.8;stroke-dashoffset:0;stroke-opacity:0.8;stroke-width:0.5;"/>
   </g>
   <g id="line2d_5">
    <path clip-path="url(#p99273c7018)" d="M 144.048738 38.267578 
L 410.4 38.267578 
" style="fill:none;stroke:#4c4c59;stroke-dasharray:1.85,0.8;stroke-dashoffset:0;stroke-opacity:0.8;stroke-width:0.5;"/>
   </g>
   <g id="line2d_6">
    <path clip-path="url(#p99273c7018)" d="M 144.048738 19.933594 
L 410.4 19.933594 
" style="fill:none;stroke:#4c4c59;stroke-dasharray:1.85,0.8;stroke-dashoffset:0;stroke-opacity:0.8;stroke-width:0.5;"/>
   </g>
   <g id="patch_49">
    <path d="M 144.048738 71.26875 
L 144.048738 12.6 
" style="fill:none;stroke:#4c4c4c;stroke-linecap:square;stroke-linejoin:miter;stroke-opacity:0.8;stroke-width:0.8;"/>
   </g>
   <g id="patch_50">
    <path d="M 410.4 71.26875 
L 410.4 12.6 
" style="fill:none;stroke:#4c4c4c;stroke-linecap:square;stroke-linejoin:miter;stroke-opacity:0.8;stroke-width:0.8;"/>
   </g>
   <g id="patch_51">
    <path d="M 144.048738 71.26875 
L 410.4 71.26875 
" style="fill:none;stroke:#4c4c4c;stroke-linecap:square;stroke-linejoin:miter;stroke-opacity:0.8;stroke-width:0.8;"/>
   </g>
   <g id="patch_52">
    <path d="M 144.048738 12.6 
L 410.4 12.6 
" style="fill:none;stroke:#4c4c4c;stroke-linecap:square;stroke-linejoin:miter;stroke-opacity:0.8;stroke-width:0.8;"/>
   </g>
  </g>
  <g id="axes_2">
   <g id="patch_53">
    <path d="M 144.048738 135.804375 
L 410.4 135.804375 
L 410.4 77.135625 
L 144.048738 77.135625 
z
" style="fill:#ffffff;"/>
   </g>
   <g id="patch_54">
    <path clip-path="url(#p5a5d8939bc)" d="M 166.822465 157.805156 
L 170.555862 157.805156 
L 170.555862 111.483377 
L 166.822465 111.483377 
z
" style="fill:#1a33e6;fill-opacity:0.3;"/>
   </g>
   <g id="patch_55">
    <path clip-path="url(#p5a5d8939bc)" d="M 177.489315 157.805156 
L 181.222713 157.805156 
L 181.222713 110.716737 
L 177.489315 110.716737 
z
" style="fill:#1a33e6;fill-opacity:0.3;"/>
   </g>
   <g id="patch_56">
    <path clip-path="url(#p5a5d8939bc)" d="M 220.156718 157.805156 
L 223.890116 157.805156 
L 223.890116 107.904363 
L 220.156718 107.904363 
z
" style="fill:#1a33e6;fill-opacity:0.3;"/>
   </g>
   <g id="patch_57">
    <path clip-path="url(#p5a5d8939bc)" d="M 326.825225 157.805156 
L 330.558623 157.805156 
L 330.558623 93.218905 
L 326.825225 93.218905 
z
" style="fill:#1a33e6;fill-opacity:0.3;"/>
   </g>
   <g id="patch_58">
    <path clip-path="url(#p5a5d8939bc)" d="M 337.492076 157.805156 
L 341.225473 157.805156 
L 341.225473 91.587176 
L 337.492076 91.587176 
z
" style="fill:#1a33e6;fill-opacity:0.3;"/>
   </g>
   <g id="patch_59">
    <path clip-path="url(#p5a5d8939bc)" d="M 358.825777 157.805156 
L 362.559175 157.805156 
L 362.559175 85.708578 
L 358.825777 85.708578 
z
" style="fill:#1a33e6;fill-opacity:0.3;"/>
   </g>
   <g id="patch_60">
    <path clip-path="url(#p5a5d8939bc)" d="M 369.492628 157.805156 
L 373.226025 157.805156 
L 373.226025 86.228449 
L 369.492628 86.228449 
z
" style="fill:#1a33e6;fill-opacity:0.3;"/>
   </g>
   <g id="patch_61">
    <path clip-path="url(#p5a5d8939bc)" d="M 380.159478 157.805156 
L 383.892876 157.805156 
L 383.892876 84.866773 
L 380.159478 84.866773 
z
" style="fill:#1a33e6;fill-opacity:0.3;"/>
   </g>
   <g id="patch_62">
    <path clip-path="url(#p5a5d8939bc)" d="M 390.826329 157.805156 
L 394.559727 157.805156 
L 394.559727 84.855699 
L 390.826329 84.855699 
z
" style="fill:#1a33e6;fill-opacity:0.3;"/>
   </g>
   <g id="patch_63">
    <path clip-path="url(#p5a5d8939bc)" d="M 156.155614 157.805156 
L 159.889012 157.805156 
L 159.889012 122.121343 
L 156.155614 122.121343 
z
" style="fill:#e61a00;fill-opacity:0.3;"/>
   </g>
   <g id="patch_64">
    <path clip-path="url(#p5a5d8939bc)" d="M 188.156166 157.805156 
L 191.889564 157.805156 
L 191.889564 118.485288 
L 188.156166 118.485288 
z
" style="fill:#e61a00;fill-opacity:0.3;"/>
   </g>
   <g id="patch_65">
    <path clip-path="url(#p5a5d8939bc)" d="M 198.823017 157.805156 
L 202.556414 157.805156 
L 202.556414 109.973578 
L 198.823017 109.973578 
z
" style="fill:#e61a00;fill-opacity:0.3;"/>
   </g>
   <g id="patch_66">
    <path clip-path="url(#p5a5d8939bc)" d="M 209.489867 157.805156 
L 213.223265 157.805156 
L 213.223265 109.76972 
L 209.489867 109.76972 
z
" style="fill:#e61a00;fill-opacity:0.3;"/>
   </g>
   <g id="patch_67">
    <path clip-path="url(#p5a5d8939bc)" d="M 230.823569 157.805156 
L 234.556967 157.805156 
L 234.556967 115.388197 
L 230.823569 115.388197 
z
" style="fill:#e61a00;fill-opacity:0.3;"/>
   </g>
   <g id="patch_68">
    <path clip-path="url(#p5a5d8939bc)" d="M 241.490419 157.805156 
L 245.223817 157.805156 
L 245.223817 101.241598 
L 241.490419 101.241598 
z
" style="fill:#e61a00;fill-opacity:0.3;"/>
   </g>
   <g id="patch_69">
    <path clip-path="url(#p5a5d8939bc)" d="M 252.15727 157.805156 
L 255.890668 157.805156 
L 255.890668 91.294259 
L 252.15727 91.294259 
z
" style="fill:#e61a00;fill-opacity:0.3;"/>
   </g>
   <g id="patch_70">
    <path clip-path="url(#p5a5d8939bc)" d="M 262.824121 157.805156 
L 266.557519 157.805156 
L 266.557519 86.417364 
L 262.824121 86.417364 
z
" style="fill:#e61a00;fill-opacity:0.3;"/>
   </g>
   <g id="patch_71">
    <path clip-path="url(#p5a5d8939bc)" d="M 273.490971 157.805156 
L 277.224369 157.805156 
L 277.224369 101.817522 
L 273.490971 101.817522 
z
" style="fill:#e61a00;fill-opacity:0.3;"/>
   </g>
   <g id="patch_72">
    <path clip-path="url(#p5a5d8939bc)" d="M 294.824673 157.805156 
L 298.558071 157.805156 
L 298.558071 89.896653 
L 294.824673 89.896653 
z
" style="fill:#e61a00;fill-opacity:0.3;"/>
   </g>
   <g id="patch_73">
    <path clip-path="url(#p5a5d8939bc)" d="M 305.491524 157.805156 
L 309.224921 157.805156 
L 309.224921 96.969784 
L 305.491524 96.969784 
z
" style="fill:#e61a00;fill-opacity:0.3;"/>
   </g>
   <g id="patch_74">
    <path clip-path="url(#p5a5d8939bc)" d="M 316.158374 157.805156 
L 319.891772 157.805156 
L 319.891772 94.018064 
L 316.158374 94.018064 
z
" style="fill:#e61a00;fill-opacity:0.3;"/>
   </g>
   <g id="patch_75">
    <path clip-path="url(#p5a5d8939bc)" d="M 284.157822 157.805156 
L 287.89122 157.805156 
L 287.89122 100.309062 
L 284.157822 100.309062 
z
" style="fill:#00cc33;fill-opacity:0.3;"/>
   </g>
   <g id="patch_76">
    <path clip-path="url(#p5a5d8939bc)" d="M 348.158926 157.805156 
L 351.892324 157.805156 
L 351.892324 89.017054 
L 348.158926 89.017054 
z
" style="fill:#00cc33;fill-opacity:0.3;"/>
   </g>
   <g id="patch_77">
    <path clip-path="url(#p5a5d8939bc)" d="M 170.555862 157.805156 
L 174.28926 157.805156 
L 174.28926 113.352481 
L 170.555862 113.352481 
z
" style="fill:#1a33e6;"/>
   </g>
   <g id="patch_78">
    <path clip-path="url(#p5a5d8939bc)" d="M 181.222713 157.805156 
L 184.956111 157.805156 
L 184.956111 110.122516 
L 181.222713 110.122516 
z
" style="fill:#1a33e6;"/>
   </g>
   <g id="patch_79">
    <path clip-path="url(#p5a5d8939bc)" d="M 223.890116 157.805156 
L 227.623514 157.805156 
L 227.623514 114.725931 
L 223.890116 114.725931 
z
" style="fill:#1a33e6;"/>
   </g>
   <g id="patch_80">
    <path clip-path="url(#p5a5d8939bc)" d="M 330.558623 157.805156 
L 334.29202 157.805156 
L 334.29202 91.645497 
L 330.558623 91.645497 
z
" style="fill:#1a33e6;"/>
   </g>
   <g id="patch_81">
    <path clip-path="url(#p5a5d8939bc)" d="M 341.225473 157.805156 
L 344.958871 157.805156 
L 344.958871 91.035811 
L 341.225473 91.035811 
z
" style="fill:#1a33e6;"/>
   </g>
   <g id="patch_82">
    <path clip-path="url(#p5a5d8939bc)" d="M 362.559175 157.805156 
L 366.292572 157.805156 
L 366.292572 85.687876 
L 362.559175 85.687876 
z
" style="fill:#1a33e6;"/>
   </g>
   <g id="patch_83">
    <path clip-path="url(#p5a5d8939bc)" d="M 373.226025 157.805156 
L 376.959423 157.805156 
L 376.959423 86.849386 
L 373.226025 86.849386 
z
" style="fill:#1a33e6;"/>
   </g>
   <g id="patch_84">
    <path clip-path="url(#p5a5d8939bc)" d="M 383.892876 157.805156 
L 387.626274 157.805156 
L 387.626274 84.757485 
L 383.892876 84.757485 
z
" style="fill:#1a33e6;"/>
   </g>
   <g id="patch_85">
    <path clip-path="url(#p5a5d8939bc)" d="M 394.559727 157.805156 
L 398.293124 157.805156 
L 398.293124 84.812013 
L 394.559727 84.812013 
z
" style="fill:#1a33e6;"/>
   </g>
   <g id="patch_86">
    <path clip-path="url(#p5a5d8939bc)" d="M 159.889012 157.805156 
L 163.622409 157.805156 
L 163.622409 119.234779 
L 159.889012 119.234779 
z
" style="fill:#e61a00;"/>
   </g>
   <g id="patch_87">
    <path clip-path="url(#p5a5d8939bc)" d="M 191.889564 157.805156 
L 195.622962 157.805156 
L 195.622962 116.113655 
L 191.889564 116.113655 
z
" style="fill:#e61a00;"/>
   </g>
   <g id="patch_88">
    <path clip-path="url(#p5a5d8939bc)" d="M 202.556414 157.805156 
L 206.289812 157.805156 
L 206.289812 109.964096 
L 202.556414 109.964096 
z
" style="fill:#e61a00;"/>
   </g>
   <g id="patch_89">
    <path clip-path="url(#p5a5d8939bc)" d="M 213.223265 157.805156 
L 216.956663 157.805156 
L 216.956663 108.704459 
L 213.223265 108.704459 
z
" style="fill:#e61a00;"/>
   </g>
   <g id="patch_90">
    <path clip-path="url(#p5a5d8939bc)" d="M 234.556967 157.805156 
L 238.290364 157.805156 
L 238.290364 109.938803 
L 234.556967 109.938803 
z
" style="fill:#e61a00;"/>
   </g>
   <g id="patch_91">
    <path clip-path="url(#p5a5d8939bc)" d="M 245.223817 157.805156 
L 248.957215 157.805156 
L 248.957215 102.456888 
L 245.223817 102.456888 
z
" style="fill:#e61a00;"/>
   </g>
   <g id="patch_92">
    <path clip-path="url(#p5a5d8939bc)" d="M 255.890668 157.805156 
L 259.624066 157.805156 
L 259.624066 92.20687 
L 255.890668 92.20687 
z
" style="fill:#e61a00;"/>
   </g>
   <g id="patch_93">
    <path clip-path="url(#p5a5d8939bc)" d="M 266.557519 157.805156 
L 270.290916 157.805156 
L 270.290916 87.020042 
L 266.557519 87.020042 
z
" style="fill:#e61a00;"/>
   </g>
   <g id="patch_94">
    <path clip-path="url(#p5a5d8939bc)" d="M 277.224369 157.805156 
L 280.957767 157.805156 
L 280.957767 101.971475 
L 277.224369 101.971475 
z
" style="fill:#e61a00;"/>
   </g>
   <g id="patch_95">
    <path clip-path="url(#p5a5d8939bc)" d="M 298.558071 157.805156 
L 302.291468 157.805156 
L 302.291468 90.638808 
L 298.558071 90.638808 
z
" style="fill:#e61a00;"/>
   </g>
   <g id="patch_96">
    <path clip-path="url(#p5a5d8939bc)" d="M 309.224921 157.805156 
L 312.958319 157.805156 
L 312.958319 98.924574 
L 309.224921 98.924574 
z
" style="fill:#e61a00;"/>
   </g>
   <g id="patch_97">
    <path clip-path="url(#p5a5d8939bc)" d="M 319.891772 157.805156 
L 323.62517 157.805156 
L 323.62517 96.696614 
L 319.891772 96.696614 
z
" style="fill:#e61a00;"/>
   </g>
   <g id="patch_98">
    <path clip-path="url(#p5a5d8939bc)" d="M 287.89122 157.805156 
L 291.624618 157.805156 
L 291.624618 99.381339 
L 287.89122 99.381339 
z
" style="fill:#00cc33;"/>
   </g>
   <g id="patch_99">
    <path clip-path="url(#p5a5d8939bc)" d="M 351.892324 157.805156 
L 355.625722 157.805156 
L 355.625722 90.435096 
L 351.892324 90.435096 
z
" style="fill:#00cc33;"/>
   </g>
   <g id="matplotlib.axis_3"/>
   <g id="matplotlib.axis_4">
    <g id="ytick_4">
     <g id="line2d_7">
      <g>
       <use style="stroke:#000000;stroke-width:0.8;" x="410.4" xlink:href="#mf7136915ad" y="121.137187"/>
      </g>
     </g>
     <g id="text_4">
      <!-- 50 -->
      <g transform="translate(417.4 123.036797)scale(0.05 -0.05)">
       <use xlink:href="#DejaVuSans-53"/>
       <use x="63.623047" xlink:href="#DejaVuSans-48"/>
      </g>
     </g>
    </g>
    <g id="ytick_5">
     <g id="line2d_8">
      <g>
       <use style="stroke:#000000;stroke-width:0.8;" x="410.4" xlink:href="#mf7136915ad" y="102.803203"/>
      </g>
     </g>
     <g id="text_5">
      <!-- 75 -->
      <g transform="translate(417.4 104.702812)scale(0.05 -0.05)">
       <use xlink:href="#DejaVuSans-55"/>
       <use x="63.623047" xlink:href="#DejaVuSans-53"/>
      </g>
     </g>
    </g>
    <g id="ytick_6">
     <g id="line2d_9">
      <g>
       <use style="stroke:#000000;stroke-width:0.8;" x="410.4" xlink:href="#mf7136915ad" y="84.469219"/>
      </g>
     </g>
     <g id="text_6">
      <!-- 100 -->
      <g transform="translate(417.4 86.368828)scale(0.05 -0.05)">
       <use xlink:href="#DejaVuSans-49"/>
       <use x="63.623047" xlink:href="#DejaVuSans-48"/>
       <use x="127.246094" xlink:href="#DejaVuSans-48"/>
      </g>
     </g>
    </g>
   </g>
   <g id="line2d_10">
    <path clip-path="url(#p5a5d8939bc)" d="M 144.048738 121.137187 
L 410.4 121.137187 
" style="fill:none;stroke:#4c4c59;stroke-dasharray:1.85,0.8;stroke-dashoffset:0;stroke-opacity:0.8;stroke-width:0.5;"/>
   </g>
   <g id="line2d_11">
    <path clip-path="url(#p5a5d8939bc)" d="M 144.048738 102.803203 
L 410.4 102.803203 
" style="fill:none;stroke:#4c4c59;stroke-dasharray:1.85,0.8;stroke-dashoffset:0;stroke-opacity:0.8;stroke-width:0.5;"/>
   </g>
   <g id="line2d_12">
    <path clip-path="url(#p5a5d8939bc)" d="M 144.048738 84.469219 
L 410.4 84.469219 
" style="fill:none;stroke:#4c4c59;stroke-dasharray:1.85,0.8;stroke-dashoffset:0;stroke-opacity:0.8;stroke-width:0.5;"/>
   </g>
   <g id="patch_100">
    <path d="M 144.048738 135.804375 
L 144.048738 77.135625 
" style="fill:none;stroke:#4c4c4c;stroke-linecap:square;stroke-linejoin:miter;stroke-opacity:0.8;stroke-width:0.8;"/>
   </g>
   <g id="patch_101">
    <path d="M 410.4 135.804375 
L 410.4 77.135625 
" style="fill:none;stroke:#4c4c4c;stroke-linecap:square;stroke-linejoin:miter;stroke-opacity:0.8;stroke-width:0.8;"/>
   </g>
   <g id="patch_102">
    <path d="M 144.048738 135.804375 
L 410.4 135.804375 
" style="fill:none;stroke:#4c4c4c;stroke-linecap:square;stroke-linejoin:miter;stroke-opacity:0.8;stroke-width:0.8;"/>
   </g>
   <g id="patch_103">
    <path d="M 144.048738 77.135625 
L 410.4 77.135625 
" style="fill:none;stroke:#4c4c4c;stroke-linecap:square;stroke-linejoin:miter;stroke-opacity:0.8;stroke-width:0.8;"/>
   </g>
  </g>
  <g id="axes_3">
   <g id="patch_104">
    <path d="M 144.048738 200.34 
L 410.4 200.34 
L 410.4 141.67125 
L 144.048738 141.67125 
z
" style="fill:#ffffff;"/>
   </g>
   <g id="patch_105">
    <path clip-path="url(#pa699c9d88f)" d="M 166.822465 222.340781 
L 170.555862 222.340781 
L 170.555862 184.605023 
L 166.822465 184.605023 
z
" style="fill:#1a33e6;fill-opacity:0.3;"/>
   </g>
   <g id="patch_106">
    <path clip-path="url(#pa699c9d88f)" d="M 177.489315 222.340781 
L 181.222713 222.340781 
L 181.222713 184.64266 
L 177.489315 184.64266 
z
" style="fill:#1a33e6;fill-opacity:0.3;"/>
   </g>
   <g id="patch_107">
    <path clip-path="url(#pa699c9d88f)" d="M 220.156718 222.340781 
L 223.890116 222.340781 
L 223.890116 182.743935 
L 220.156718 182.743935 
z
" style="fill:#1a33e6;fill-opacity:0.3;"/>
   </g>
   <g id="patch_108">
    <path clip-path="url(#pa699c9d88f)" d="M 326.825225 222.340781 
L 330.558623 222.340781 
L 330.558623 196.912477 
L 326.825225 196.912477 
z
" style="fill:#1a33e6;fill-opacity:0.3;"/>
   </g>
   <g id="patch_109">
    <path clip-path="url(#pa699c9d88f)" d="M 337.492076 222.340781 
L 341.225473 222.340781 
L 341.225473 183.140665 
L 337.492076 183.140665 
z
" style="fill:#1a33e6;fill-opacity:0.3;"/>
   </g>
   <g id="patch_110">
    <path clip-path="url(#pa699c9d88f)" d="M 358.825777 222.340781 
L 362.559175 222.340781 
L 362.559175 181.83786 
L 358.825777 181.83786 
z
" style="fill:#1a33e6;fill-opacity:0.3;"/>
   </g>
   <g id="patch_111">
    <path clip-path="url(#pa699c9d88f)" d="M 369.492628 222.340781 
L 373.226025 222.340781 
L 373.226025 186.037455 
L 369.492628 186.037455 
z
" style="fill:#1a33e6;fill-opacity:0.3;"/>
   </g>
   <g id="patch_112">
    <path clip-path="url(#pa699c9d88f)" d="M 380.159478 222.340781 
L 383.892876 222.340781 
L 383.892876 169.606438 
L 380.159478 169.606438 
z
" style="fill:#1a33e6;fill-opacity:0.3;"/>
   </g>
   <g id="patch_113">
    <path clip-path="url(#pa699c9d88f)" d="M 390.826329 222.340781 
L 394.559727 222.340781 
L 394.559727 165.57841 
L 390.826329 165.57841 
z
" style="fill:#1a33e6;fill-opacity:0.3;"/>
   </g>
   <g id="patch_114">
    <path clip-path="url(#pa699c9d88f)" d="M 156.155614 222.340781 
L 159.889012 222.340781 
L 159.889012 197.6564 
L 156.155614 197.6564 
z
" style="fill:#e61a00;fill-opacity:0.3;"/>
   </g>
   <g id="patch_115">
    <path clip-path="url(#pa699c9d88f)" d="M 188.156166 222.340781 
L 191.889564 222.340781 
L 191.889564 201.903401 
L 188.156166 201.903401 
z
" style="fill:#e61a00;fill-opacity:0.3;"/>
   </g>
   <g id="patch_116">
    <path clip-path="url(#pa699c9d88f)" d="M 198.823017 222.340781 
L 202.556414 222.340781 
L 202.556414 204.813956 
L 198.823017 204.813956 
z
" style="fill:#e61a00;fill-opacity:0.3;"/>
   </g>
   <g id="patch_117">
    <path clip-path="url(#pa699c9d88f)" d="M 209.489867 222.340781 
L 213.223265 222.340781 
L 213.223265 185.552181 
L 209.489867 185.552181 
z
" style="fill:#e61a00;fill-opacity:0.3;"/>
   </g>
   <g id="patch_118">
    <path clip-path="url(#pa699c9d88f)" d="M 230.823569 222.340781 
L 234.556967 222.340781 
L 234.556967 181.783582 
L 230.823569 181.783582 
z
" style="fill:#e61a00;fill-opacity:0.3;"/>
   </g>
   <g id="patch_119">
    <path clip-path="url(#pa699c9d88f)" d="M 241.490419 222.340781 
L 245.223817 222.340781 
L 245.223817 204.297068 
L 241.490419 204.297068 
z
" style="fill:#e61a00;fill-opacity:0.3;"/>
   </g>
   <g id="patch_120">
    <path clip-path="url(#pa699c9d88f)" d="M 252.15727 222.340781 
L 255.890668 222.340781 
L 255.890668 184.391975 
L 252.15727 184.391975 
z
" style="fill:#e61a00;fill-opacity:0.3;"/>
   </g>
   <g id="patch_121">
    <path clip-path="url(#pa699c9d88f)" d="M 262.824121 222.340781 
L 266.557519 222.340781 
L 266.557519 182.041513 
L 262.824121 182.041513 
z
" style="fill:#e61a00;fill-opacity:0.3;"/>
   </g>
   <g id="patch_122">
    <path clip-path="url(#pa699c9d88f)" d="M 273.490971 222.340781 
L 277.224369 222.340781 
L 277.224369 173.001897 
L 273.490971 173.001897 
z
" style="fill:#e61a00;fill-opacity:0.3;"/>
   </g>
   <g id="patch_123">
    <path clip-path="url(#pa699c9d88f)" d="M 294.824673 222.340781 
L 298.558071 222.340781 
L 298.558071 184.086393 
L 294.824673 184.086393 
z
" style="fill:#e61a00;fill-opacity:0.3;"/>
   </g>
   <g id="patch_124">
    <path clip-path="url(#pa699c9d88f)" d="M 305.491524 222.340781 
L 309.224921 222.340781 
L 309.224921 195.559663 
L 305.491524 195.559663 
z
" style="fill:#e61a00;fill-opacity:0.3;"/>
   </g>
   <g id="patch_125">
    <path clip-path="url(#pa699c9d88f)" d="M 316.158374 222.340781 
L 319.891772 222.340781 
L 319.891772 190.447725 
L 316.158374 190.447725 
z
" style="fill:#e61a00;fill-opacity:0.3;"/>
   </g>
   <g id="patch_126">
    <path clip-path="url(#pa699c9d88f)" d="M 284.157822 222.340781 
L 287.89122 222.340781 
L 287.89122 199.345778 
L 284.157822 199.345778 
z
" style="fill:#00cc33;fill-opacity:0.3;"/>
   </g>
   <g id="patch_127">
    <path clip-path="url(#pa699c9d88f)" d="M 348.158926 222.340781 
L 351.892324 222.340781 
L 351.892324 188.524532 
L 348.158926 188.524532 
z
" style="fill:#00cc33;fill-opacity:0.3;"/>
   </g>
   <g id="patch_128">
    <path clip-path="url(#pa699c9d88f)" d="M 170.555862 222.340781 
L 174.28926 222.340781 
L 174.28926 184.750062 
L 170.555862 184.750062 
z
" style="fill:#1a33e6;"/>
   </g>
   <g id="patch_129">
    <path clip-path="url(#pa699c9d88f)" d="M 181.222713 222.340781 
L 184.956111 222.340781 
L 184.956111 184.848542 
L 181.222713 184.848542 
z
" style="fill:#1a33e6;"/>
   </g>
   <g id="patch_130">
    <path clip-path="url(#pa699c9d88f)" d="M 223.890116 222.340781 
L 227.623514 222.340781 
L 227.623514 183.704077 
L 223.890116 183.704077 
z
" style="fill:#1a33e6;"/>
   </g>
   <g id="patch_131">
    <path clip-path="url(#pa699c9d88f)" d="M 330.558623 222.340781 
L 334.29202 222.340781 
L 334.29202 188.480387 
L 330.558623 188.480387 
z
" style="fill:#1a33e6;"/>
   </g>
   <g id="patch_132">
    <path clip-path="url(#pa699c9d88f)" d="M 341.225473 222.340781 
L 344.958871 222.340781 
L 344.958871 183.523641 
L 341.225473 183.523641 
z
" style="fill:#1a33e6;"/>
   </g>
   <g id="patch_133">
    <path clip-path="url(#pa699c9d88f)" d="M 362.559175 222.340781 
L 366.292572 222.340781 
L 366.292572 182.110819 
L 362.559175 182.110819 
z
" style="fill:#1a33e6;"/>
   </g>
   <g id="patch_134">
    <path clip-path="url(#pa699c9d88f)" d="M 373.226025 222.340781 
L 376.959423 222.340781 
L 376.959423 186.233954 
L 373.226025 186.233954 
z
" style="fill:#1a33e6;"/>
   </g>
   <g id="patch_135">
    <path clip-path="url(#pa699c9d88f)" d="M 383.892876 222.340781 
L 387.626274 222.340781 
L 387.626274 168.013219 
L 383.892876 168.013219 
z
" style="fill:#1a33e6;"/>
   </g>
   <g id="patch_136">
    <path clip-path="url(#pa699c9d88f)" d="M 394.559727 222.340781 
L 398.293124 222.340781 
L 398.293124 165.211216 
L 394.559727 165.211216 
z
" style="fill:#1a33e6;"/>
   </g>
   <g id="patch_137">
    <path clip-path="url(#pa699c9d88f)" d="M 159.889012 222.340781 
L 163.622409 222.340781 
L 163.622409 189.023802 
L 159.889012 189.023802 
z
" style="fill:#e61a00;"/>
   </g>
   <g id="patch_138">
    <path clip-path="url(#pa699c9d88f)" d="M 191.889564 222.340781 
L 195.622962 222.340781 
L 195.622962 192.252267 
L 191.889564 192.252267 
z
" style="fill:#e61a00;"/>
   </g>
   <g id="patch_139">
    <path clip-path="url(#pa699c9d88f)" d="M 202.556414 222.340781 
L 206.289812 222.340781 
L 206.289812 194.997693 
L 202.556414 194.997693 
z
" style="fill:#e61a00;"/>
   </g>
   <g id="patch_140">
    <path clip-path="url(#pa699c9d88f)" d="M 213.223265 222.340781 
L 216.956663 222.340781 
L 216.956663 179.555984 
L 213.223265 179.555984 
z
" style="fill:#e61a00;"/>
   </g>
   <g id="patch_141">
    <path clip-path="url(#pa699c9d88f)" d="M 234.556967 222.340781 
L 238.290364 222.340781 
L 238.290364 182.542627 
L 234.556967 182.542627 
z
" style="fill:#e61a00;"/>
   </g>
   <g id="patch_142">
    <path clip-path="url(#pa699c9d88f)" d="M 245.223817 222.340781 
L 248.957215 222.340781 
L 248.957215 194.615569 
L 245.223817 194.615569 
z
" style="fill:#e61a00;"/>
   </g>
   <g id="patch_143">
    <path clip-path="url(#pa699c9d88f)" d="M 255.890668 222.340781 
L 259.624066 222.340781 
L 259.624066 184.618105 
L 255.890668 184.618105 
z
" style="fill:#e61a00;"/>
   </g>
   <g id="patch_144">
    <path clip-path="url(#pa699c9d88f)" d="M 266.557519 222.340781 
L 270.290916 222.340781 
L 270.290916 182.328153 
L 266.557519 182.328153 
z
" style="fill:#e61a00;"/>
   </g>
   <g id="patch_145">
    <path clip-path="url(#pa699c9d88f)" d="M 277.224369 222.340781 
L 280.957767 222.340781 
L 280.957767 170.096601 
L 277.224369 170.096601 
z
" style="fill:#e61a00;"/>
   </g>
   <g id="patch_146">
    <path clip-path="url(#pa699c9d88f)" d="M 298.558071 222.340781 
L 302.291468 222.340781 
L 302.291468 184.304505 
L 298.558071 184.304505 
z
" style="fill:#e61a00;"/>
   </g>
   <g id="patch_147">
    <path clip-path="url(#pa699c9d88f)" d="M 309.224921 222.340781 
L 312.958319 222.340781 
L 312.958319 189.994342 
L 309.224921 189.994342 
z
" style="fill:#e61a00;"/>
   </g>
   <g id="patch_148">
    <path clip-path="url(#pa699c9d88f)" d="M 319.891772 222.340781 
L 323.62517 222.340781 
L 323.62517 187.584295 
L 319.891772 187.584295 
z
" style="fill:#e61a00;"/>
   </g>
   <g id="patch_149">
    <path clip-path="url(#pa699c9d88f)" d="M 287.89122 222.340781 
L 291.624618 222.340781 
L 291.624618 189.786268 
L 287.89122 189.786268 
z
" style="fill:#00cc33;"/>
   </g>
   <g id="patch_150">
    <path clip-path="url(#pa699c9d88f)" d="M 351.892324 222.340781 
L 355.625722 222.340781 
L 355.625722 184.08029 
L 351.892324 184.08029 
z
" style="fill:#00cc33;"/>
   </g>
   <g id="matplotlib.axis_5">
    <g id="xtick_1">
     <g id="line2d_13">
      <defs>
       <path d="M 0 0 
L 0 3.5 
" id="m3ead6370b8" style="stroke:#000000;stroke-width:0.8;"/>
      </defs>
      <g>
       <use style="stroke:#000000;stroke-width:0.8;" x="159.889012" xlink:href="#m3ead6370b8" y="200.34"/>
      </g>
     </g>
     <g id="text_7">
      <!-- AEBCE-KNN-1 -->
      <g transform="translate(160.624292 210.026453)rotate(-315)scale(0.05 -0.05)">
       <defs>
        <path d="M 34.1875 63.1875 
L 20.796875 26.90625 
L 47.609375 26.90625 
z
M 28.609375 72.90625 
L 39.796875 72.90625 
L 67.578125 0 
L 57.328125 0 
L 50.6875 18.703125 
L 17.828125 18.703125 
L 11.1875 0 
L 0.78125 0 
z
" id="DejaVuSans-65"/>
        <path d="M 9.8125 72.90625 
L 55.90625 72.90625 
L 55.90625 64.59375 
L 19.671875 64.59375 
L 19.671875 43.015625 
L 54.390625 43.015625 
L 54.390625 34.71875 
L 19.671875 34.71875 
L 19.671875 8.296875 
L 56.78125 8.296875 
L 56.78125 0 
L 9.8125 0 
z
" id="DejaVuSans-69"/>
        <path d="M 19.671875 34.8125 
L 19.671875 8.109375 
L 35.5 8.109375 
Q 43.453125 8.109375 47.28125 11.40625 
Q 51.125 14.703125 51.125 21.484375 
Q 51.125 28.328125 47.28125 31.5625 
Q 43.453125 34.8125 35.5 34.8125 
z
M 19.671875 64.796875 
L 19.671875 42.828125 
L 34.28125 42.828125 
Q 41.5 42.828125 45.03125 45.53125 
Q 48.578125 48.25 48.578125 53.8125 
Q 48.578125 59.328125 45.03125 62.0625 
Q 41.5 64.796875 34.28125 64.796875 
z
M 9.8125 72.90625 
L 35.015625 72.90625 
Q 46.296875 72.90625 52.390625 68.21875 
Q 58.5 63.53125 58.5 54.890625 
Q 58.5 48.1875 55.375 44.234375 
Q 52.25 40.28125 46.1875 39.3125 
Q 53.46875 37.75 57.5 32.78125 
Q 61.53125 27.828125 61.53125 20.40625 
Q 61.53125 10.640625 54.890625 5.3125 
Q 48.25 0 35.984375 0 
L 9.8125 0 
z
" id="DejaVuSans-66"/>
        <path d="M 64.40625 67.28125 
L 64.40625 56.890625 
Q 59.421875 61.53125 53.78125 63.8125 
Q 48.140625 66.109375 41.796875 66.109375 
Q 29.296875 66.109375 22.65625 58.46875 
Q 16.015625 50.828125 16.015625 36.375 
Q 16.015625 21.96875 22.65625 14.328125 
Q 29.296875 6.6875 41.796875 6.6875 
Q 48.140625 6.6875 53.78125 8.984375 
Q 59.421875 11.28125 64.40625 15.921875 
L 64.40625 5.609375 
Q 59.234375 2.09375 53.4375 0.328125 
Q 47.65625 -1.421875 41.21875 -1.421875 
Q 24.65625 -1.421875 15.125 8.703125 
Q 5.609375 18.84375 5.609375 36.375 
Q 5.609375 53.953125 15.125 64.078125 
Q 24.65625 74.21875 41.21875 74.21875 
Q 47.75 74.21875 53.53125 72.484375 
Q 59.328125 70.75 64.40625 67.28125 
z
" id="DejaVuSans-67"/>
        <path d="M 4.890625 31.390625 
L 31.203125 31.390625 
L 31.203125 23.390625 
L 4.890625 23.390625 
z
" id="DejaVuSans-45"/>
        <path d="M 9.8125 72.90625 
L 19.671875 72.90625 
L 19.671875 42.09375 
L 52.390625 72.90625 
L 65.09375 72.90625 
L 28.90625 38.921875 
L 67.671875 0 
L 54.6875 0 
L 19.671875 35.109375 
L 19.671875 0 
L 9.8125 0 
z
" id="DejaVuSans-75"/>
        <path d="M 9.8125 72.90625 
L 23.09375 72.90625 
L 55.421875 11.921875 
L 55.421875 72.90625 
L 64.984375 72.90625 
L 64.984375 0 
L 51.703125 0 
L 19.390625 60.984375 
L 19.390625 0 
L 9.8125 0 
z
" id="DejaVuSans-78"/>
       </defs>
       <use xlink:href="#DejaVuSans-65"/>
       <use x="68.408203" xlink:href="#DejaVuSans-69"/>
       <use x="131.591797" xlink:href="#DejaVuSans-66"/>
       <use x="198.445312" xlink:href="#DejaVuSans-67"/>
       <use x="268.269531" xlink:href="#DejaVuSans-69"/>
       <use x="331.453125" xlink:href="#DejaVuSans-45"/>
       <use x="367.537109" xlink:href="#DejaVuSans-75"/>
       <use x="433.113281" xlink:href="#DejaVuSans-78"/>
       <use x="507.917969" xlink:href="#DejaVuSans-78"/>
       <use x="582.722656" xlink:href="#DejaVuSans-45"/>
       <use x="618.806641" xlink:href="#DejaVuSans-49"/>
      </g>
     </g>
    </g>
    <g id="xtick_2">
     <g id="line2d_14">
      <g>
       <use style="stroke:#000000;stroke-width:0.8;" x="170.555862" xlink:href="#m3ead6370b8" y="200.34"/>
      </g>
     </g>
     <g id="text_8">
      <!-- Prob. threshold -->
      <g transform="translate(171.291143 210.026453)rotate(-315)scale(0.05 -0.05)">
       <defs>
        <path d="M 19.671875 64.796875 
L 19.671875 37.40625 
L 32.078125 37.40625 
Q 38.96875 37.40625 42.71875 40.96875 
Q 46.484375 44.53125 46.484375 51.125 
Q 46.484375 57.671875 42.71875 61.234375 
Q 38.96875 64.796875 32.078125 64.796875 
z
M 9.8125 72.90625 
L 32.078125 72.90625 
Q 44.34375 72.90625 50.609375 67.359375 
Q 56.890625 61.8125 56.890625 51.125 
Q 56.890625 40.328125 50.609375 34.8125 
Q 44.34375 29.296875 32.078125 29.296875 
L 19.671875 29.296875 
L 19.671875 0 
L 9.8125 0 
z
" id="DejaVuSans-80"/>
        <path d="M 41.109375 46.296875 
Q 39.59375 47.171875 37.8125 47.578125 
Q 36.03125 48 33.890625 48 
Q 26.265625 48 22.1875 43.046875 
Q 18.109375 38.09375 18.109375 28.8125 
L 18.109375 0 
L 9.078125 0 
L 9.078125 54.6875 
L 18.109375 54.6875 
L 18.109375 46.1875 
Q 20.953125 51.171875 25.484375 53.578125 
Q 30.03125 56 36.53125 56 
Q 37.453125 56 38.578125 55.875 
Q 39.703125 55.765625 41.0625 55.515625 
z
" id="DejaVuSans-114"/>
        <path d="M 30.609375 48.390625 
Q 23.390625 48.390625 19.1875 42.75 
Q 14.984375 37.109375 14.984375 27.296875 
Q 14.984375 17.484375 19.15625 11.84375 
Q 23.34375 6.203125 30.609375 6.203125 
Q 37.796875 6.203125 41.984375 11.859375 
Q 46.1875 17.53125 46.1875 27.296875 
Q 46.1875 37.015625 41.984375 42.703125 
Q 37.796875 48.390625 30.609375 48.390625 
z
M 30.609375 56 
Q 42.328125 56 49.015625 48.375 
Q 55.71875 40.765625 55.71875 27.296875 
Q 55.71875 13.875 49.015625 6.21875 
Q 42.328125 -1.421875 30.609375 -1.421875 
Q 18.84375 -1.421875 12.171875 6.21875 
Q 5.515625 13.875 5.515625 27.296875 
Q 5.515625 40.765625 12.171875 48.375 
Q 18.84375 56 30.609375 56 
z
" id="DejaVuSans-111"/>
        <path d="M 48.6875 27.296875 
Q 48.6875 37.203125 44.609375 42.84375 
Q 40.53125 48.484375 33.40625 48.484375 
Q 26.265625 48.484375 22.1875 42.84375 
Q 18.109375 37.203125 18.109375 27.296875 
Q 18.109375 17.390625 22.1875 11.75 
Q 26.265625 6.109375 33.40625 6.109375 
Q 40.53125 6.109375 44.609375 11.75 
Q 48.6875 17.390625 48.6875 27.296875 
z
M 18.109375 46.390625 
Q 20.953125 51.265625 25.265625 53.625 
Q 29.59375 56 35.59375 56 
Q 45.5625 56 51.78125 48.09375 
Q 58.015625 40.1875 58.015625 27.296875 
Q 58.015625 14.40625 51.78125 6.484375 
Q 45.5625 -1.421875 35.59375 -1.421875 
Q 29.59375 -1.421875 25.265625 0.953125 
Q 20.953125 3.328125 18.109375 8.203125 
L 18.109375 0 
L 9.078125 0 
L 9.078125 75.984375 
L 18.109375 75.984375 
z
" id="DejaVuSans-98"/>
        <path d="M 10.6875 12.40625 
L 21 12.40625 
L 21 0 
L 10.6875 0 
z
" id="DejaVuSans-46"/>
        <path id="DejaVuSans-32"/>
        <path d="M 18.3125 70.21875 
L 18.3125 54.6875 
L 36.8125 54.6875 
L 36.8125 47.703125 
L 18.3125 47.703125 
L 18.3125 18.015625 
Q 18.3125 11.328125 20.140625 9.421875 
Q 21.96875 7.515625 27.59375 7.515625 
L 36.8125 7.515625 
L 36.8125 0 
L 27.59375 0 
Q 17.1875 0 13.234375 3.875 
Q 9.28125 7.765625 9.28125 18.015625 
L 9.28125 47.703125 
L 2.6875 47.703125 
L 2.6875 54.6875 
L 9.28125 54.6875 
L 9.28125 70.21875 
z
" id="DejaVuSans-116"/>
        <path d="M 54.890625 33.015625 
L 54.890625 0 
L 45.90625 0 
L 45.90625 32.71875 
Q 45.90625 40.484375 42.875 44.328125 
Q 39.84375 48.1875 33.796875 48.1875 
Q 26.515625 48.1875 22.3125 43.546875 
Q 18.109375 38.921875 18.109375 30.90625 
L 18.109375 0 
L 9.078125 0 
L 9.078125 75.984375 
L 18.109375 75.984375 
L 18.109375 46.1875 
Q 21.34375 51.125 25.703125 53.5625 
Q 30.078125 56 35.796875 56 
Q 45.21875 56 50.046875 50.171875 
Q 54.890625 44.34375 54.890625 33.015625 
z
" id="DejaVuSans-104"/>
        <path d="M 56.203125 29.59375 
L 56.203125 25.203125 
L 14.890625 25.203125 
Q 15.484375 15.921875 20.484375 11.0625 
Q 25.484375 6.203125 34.421875 6.203125 
Q 39.59375 6.203125 44.453125 7.46875 
Q 49.3125 8.734375 54.109375 11.28125 
L 54.109375 2.78125 
Q 49.265625 0.734375 44.1875 -0.34375 
Q 39.109375 -1.421875 33.890625 -1.421875 
Q 20.796875 -1.421875 13.15625 6.1875 
Q 5.515625 13.8125 5.515625 26.8125 
Q 5.515625 40.234375 12.765625 48.109375 
Q 20.015625 56 32.328125 56 
Q 43.359375 56 49.78125 48.890625 
Q 56.203125 41.796875 56.203125 29.59375 
z
M 47.21875 32.234375 
Q 47.125 39.59375 43.09375 43.984375 
Q 39.0625 48.390625 32.421875 48.390625 
Q 24.90625 48.390625 20.390625 44.140625 
Q 15.875 39.890625 15.1875 32.171875 
z
" id="DejaVuSans-101"/>
        <path d="M 44.28125 53.078125 
L 44.28125 44.578125 
Q 40.484375 46.53125 36.375 47.5 
Q 32.28125 48.484375 27.875 48.484375 
Q 21.1875 48.484375 17.84375 46.4375 
Q 14.5 44.390625 14.5 40.28125 
Q 14.5 37.15625 16.890625 35.375 
Q 19.28125 33.59375 26.515625 31.984375 
L 29.59375 31.296875 
Q 39.15625 29.25 43.1875 25.515625 
Q 47.21875 21.78125 47.21875 15.09375 
Q 47.21875 7.46875 41.1875 3.015625 
Q 35.15625 -1.421875 24.609375 -1.421875 
Q 20.21875 -1.421875 15.453125 -0.5625 
Q 10.6875 0.296875 5.421875 2 
L 5.421875 11.28125 
Q 10.40625 8.6875 15.234375 7.390625 
Q 20.0625 6.109375 24.8125 6.109375 
Q 31.15625 6.109375 34.5625 8.28125 
Q 37.984375 10.453125 37.984375 14.40625 
Q 37.984375 18.0625 35.515625 20.015625 
Q 33.0625 21.96875 24.703125 23.78125 
L 21.578125 24.515625 
Q 13.234375 26.265625 9.515625 29.90625 
Q 5.8125 33.546875 5.8125 39.890625 
Q 5.8125 47.609375 11.28125 51.796875 
Q 16.75 56 26.8125 56 
Q 31.78125 56 36.171875 55.265625 
Q 40.578125 54.546875 44.28125 53.078125 
z
" id="DejaVuSans-115"/>
        <path d="M 9.421875 75.984375 
L 18.40625 75.984375 
L 18.40625 0 
L 9.421875 0 
z
" id="DejaVuSans-108"/>
        <path d="M 45.40625 46.390625 
L 45.40625 75.984375 
L 54.390625 75.984375 
L 54.390625 0 
L 45.40625 0 
L 45.40625 8.203125 
Q 42.578125 3.328125 38.25 0.953125 
Q 33.9375 -1.421875 27.875 -1.421875 
Q 17.96875 -1.421875 11.734375 6.484375 
Q 5.515625 14.40625 5.515625 27.296875 
Q 5.515625 40.1875 11.734375 48.09375 
Q 17.96875 56 27.875 56 
Q 33.9375 56 38.25 53.625 
Q 42.578125 51.265625 45.40625 46.390625 
z
M 14.796875 27.296875 
Q 14.796875 17.390625 18.875 11.75 
Q 22.953125 6.109375 30.078125 6.109375 
Q 37.203125 6.109375 41.296875 11.75 
Q 45.40625 17.390625 45.40625 27.296875 
Q 45.40625 37.203125 41.296875 42.84375 
Q 37.203125 48.484375 30.078125 48.484375 
Q 22.953125 48.484375 18.875 42.84375 
Q 14.796875 37.203125 14.796875 27.296875 
z
" id="DejaVuSans-100"/>
       </defs>
       <use xlink:href="#DejaVuSans-80"/>
       <use x="58.552734" xlink:href="#DejaVuSans-114"/>
       <use x="97.416016" xlink:href="#DejaVuSans-111"/>
       <use x="158.597656" xlink:href="#DejaVuSans-98"/>
       <use x="222.074219" xlink:href="#DejaVuSans-46"/>
       <use x="253.861328" xlink:href="#DejaVuSans-32"/>
       <use x="285.648438" xlink:href="#DejaVuSans-116"/>
       <use x="324.857422" xlink:href="#DejaVuSans-104"/>
       <use x="388.236328" xlink:href="#DejaVuSans-114"/>
       <use x="427.099609" xlink:href="#DejaVuSans-101"/>
       <use x="488.623047" xlink:href="#DejaVuSans-115"/>
       <use x="540.722656" xlink:href="#DejaVuSans-104"/>
       <use x="604.101562" xlink:href="#DejaVuSans-111"/>
       <use x="665.283203" xlink:href="#DejaVuSans-108"/>
       <use x="693.066406" xlink:href="#DejaVuSans-100"/>
      </g>
     </g>
    </g>
    <g id="xtick_3">
     <g id="line2d_15">
      <g>
       <use style="stroke:#000000;stroke-width:0.8;" x="181.222713" xlink:href="#m3ead6370b8" y="200.34"/>
      </g>
     </g>
     <g id="text_9">
      <!-- ODIN -->
      <g transform="translate(181.957994 210.026453)rotate(-315)scale(0.05 -0.05)">
       <defs>
        <path d="M 39.40625 66.21875 
Q 28.65625 66.21875 22.328125 58.203125 
Q 16.015625 50.203125 16.015625 36.375 
Q 16.015625 22.609375 22.328125 14.59375 
Q 28.65625 6.59375 39.40625 6.59375 
Q 50.140625 6.59375 56.421875 14.59375 
Q 62.703125 22.609375 62.703125 36.375 
Q 62.703125 50.203125 56.421875 58.203125 
Q 50.140625 66.21875 39.40625 66.21875 
z
M 39.40625 74.21875 
Q 54.734375 74.21875 63.90625 63.9375 
Q 73.09375 53.65625 73.09375 36.375 
Q 73.09375 19.140625 63.90625 8.859375 
Q 54.734375 -1.421875 39.40625 -1.421875 
Q 24.03125 -1.421875 14.8125 8.828125 
Q 5.609375 19.09375 5.609375 36.375 
Q 5.609375 53.65625 14.8125 63.9375 
Q 24.03125 74.21875 39.40625 74.21875 
z
" id="DejaVuSans-79"/>
        <path d="M 19.671875 64.796875 
L 19.671875 8.109375 
L 31.59375 8.109375 
Q 46.6875 8.109375 53.6875 14.9375 
Q 60.6875 21.78125 60.6875 36.53125 
Q 60.6875 51.171875 53.6875 57.984375 
Q 46.6875 64.796875 31.59375 64.796875 
z
M 9.8125 72.90625 
L 30.078125 72.90625 
Q 51.265625 72.90625 61.171875 64.09375 
Q 71.09375 55.28125 71.09375 36.53125 
Q 71.09375 17.671875 61.125 8.828125 
Q 51.171875 0 30.078125 0 
L 9.8125 0 
z
" id="DejaVuSans-68"/>
        <path d="M 9.8125 72.90625 
L 19.671875 72.90625 
L 19.671875 0 
L 9.8125 0 
z
" id="DejaVuSans-73"/>
       </defs>
       <use xlink:href="#DejaVuSans-79"/>
       <use x="78.710938" xlink:href="#DejaVuSans-68"/>
       <use x="155.712891" xlink:href="#DejaVuSans-73"/>
       <use x="185.205078" xlink:href="#DejaVuSans-78"/>
      </g>
     </g>
    </g>
    <g id="xtick_4">
     <g id="line2d_16">
      <g>
       <use style="stroke:#000000;stroke-width:0.8;" x="191.889564" xlink:href="#m3ead6370b8" y="200.34"/>
      </g>
     </g>
     <g id="text_10">
      <!-- AEMSE-KNN-1 -->
      <g transform="translate(192.624844 210.026453)rotate(-315)scale(0.05 -0.05)">
       <defs>
        <path d="M 9.8125 72.90625 
L 24.515625 72.90625 
L 43.109375 23.296875 
L 61.8125 72.90625 
L 76.515625 72.90625 
L 76.515625 0 
L 66.890625 0 
L 66.890625 64.015625 
L 48.09375 14.015625 
L 38.1875 14.015625 
L 19.390625 64.015625 
L 19.390625 0 
L 9.8125 0 
z
" id="DejaVuSans-77"/>
        <path d="M 53.515625 70.515625 
L 53.515625 60.890625 
Q 47.90625 63.578125 42.921875 64.890625 
Q 37.9375 66.21875 33.296875 66.21875 
Q 25.25 66.21875 20.875 63.09375 
Q 16.5 59.96875 16.5 54.203125 
Q 16.5 49.359375 19.40625 46.890625 
Q 22.3125 44.4375 30.421875 42.921875 
L 36.375 41.703125 
Q 47.40625 39.59375 52.65625 34.296875 
Q 57.90625 29 57.90625 20.125 
Q 57.90625 9.515625 50.796875 4.046875 
Q 43.703125 -1.421875 29.984375 -1.421875 
Q 24.8125 -1.421875 18.96875 -0.25 
Q 13.140625 0.921875 6.890625 3.21875 
L 6.890625 13.375 
Q 12.890625 10.015625 18.65625 8.296875 
Q 24.421875 6.59375 29.984375 6.59375 
Q 38.421875 6.59375 43.015625 9.90625 
Q 47.609375 13.234375 47.609375 19.390625 
Q 47.609375 24.75 44.3125 27.78125 
Q 41.015625 30.8125 33.5 32.328125 
L 27.484375 33.5 
Q 16.453125 35.6875 11.515625 40.375 
Q 6.59375 45.0625 6.59375 53.421875 
Q 6.59375 63.09375 13.40625 68.65625 
Q 20.21875 74.21875 32.171875 74.21875 
Q 37.3125 74.21875 42.625 73.28125 
Q 47.953125 72.359375 53.515625 70.515625 
z
" id="DejaVuSans-83"/>
       </defs>
       <use xlink:href="#DejaVuSans-65"/>
       <use x="68.408203" xlink:href="#DejaVuSans-69"/>
       <use x="131.591797" xlink:href="#DejaVuSans-77"/>
       <use x="217.871094" xlink:href="#DejaVuSans-83"/>
       <use x="281.347656" xlink:href="#DejaVuSans-69"/>
       <use x="344.53125" xlink:href="#DejaVuSans-45"/>
       <use x="380.615234" xlink:href="#DejaVuSans-75"/>
       <use x="446.191406" xlink:href="#DejaVuSans-78"/>
       <use x="520.996094" xlink:href="#DejaVuSans-78"/>
       <use x="595.800781" xlink:href="#DejaVuSans-45"/>
       <use x="631.884766" xlink:href="#DejaVuSans-49"/>
      </g>
     </g>
    </g>
    <g id="xtick_5">
     <g id="line2d_17">
      <g>
       <use style="stroke:#000000;stroke-width:0.8;" x="202.556414" xlink:href="#m3ead6370b8" y="200.34"/>
      </g>
     </g>
     <g id="text_11">
      <!-- AEBCE-KNN-8 -->
      <g transform="translate(203.291695 210.026453)rotate(-315)scale(0.05 -0.05)">
       <defs>
        <path d="M 31.78125 34.625 
Q 24.75 34.625 20.71875 30.859375 
Q 16.703125 27.09375 16.703125 20.515625 
Q 16.703125 13.921875 20.71875 10.15625 
Q 24.75 6.390625 31.78125 6.390625 
Q 38.8125 6.390625 42.859375 10.171875 
Q 46.921875 13.96875 46.921875 20.515625 
Q 46.921875 27.09375 42.890625 30.859375 
Q 38.875 34.625 31.78125 34.625 
z
M 21.921875 38.8125 
Q 15.578125 40.375 12.03125 44.71875 
Q 8.5 49.078125 8.5 55.328125 
Q 8.5 64.0625 14.71875 69.140625 
Q 20.953125 74.21875 31.78125 74.21875 
Q 42.671875 74.21875 48.875 69.140625 
Q 55.078125 64.0625 55.078125 55.328125 
Q 55.078125 49.078125 51.53125 44.71875 
Q 48 40.375 41.703125 38.8125 
Q 48.828125 37.15625 52.796875 32.3125 
Q 56.78125 27.484375 56.78125 20.515625 
Q 56.78125 9.90625 50.3125 4.234375 
Q 43.84375 -1.421875 31.78125 -1.421875 
Q 19.734375 -1.421875 13.25 4.234375 
Q 6.78125 9.90625 6.78125 20.515625 
Q 6.78125 27.484375 10.78125 32.3125 
Q 14.796875 37.15625 21.921875 38.8125 
z
M 18.3125 54.390625 
Q 18.3125 48.734375 21.84375 45.5625 
Q 25.390625 42.390625 31.78125 42.390625 
Q 38.140625 42.390625 41.71875 45.5625 
Q 45.3125 48.734375 45.3125 54.390625 
Q 45.3125 60.0625 41.71875 63.234375 
Q 38.140625 66.40625 31.78125 66.40625 
Q 25.390625 66.40625 21.84375 63.234375 
Q 18.3125 60.0625 18.3125 54.390625 
z
" id="DejaVuSans-56"/>
       </defs>
       <use xlink:href="#DejaVuSans-65"/>
       <use x="68.408203" xlink:href="#DejaVuSans-69"/>
       <use x="131.591797" xlink:href="#DejaVuSans-66"/>
       <use x="198.445312" xlink:href="#DejaVuSans-67"/>
       <use x="268.269531" xlink:href="#DejaVuSans-69"/>
       <use x="331.453125" xlink:href="#DejaVuSans-45"/>
       <use x="367.537109" xlink:href="#DejaVuSans-75"/>
       <use x="433.113281" xlink:href="#DejaVuSans-78"/>
       <use x="507.917969" xlink:href="#DejaVuSans-78"/>
       <use x="582.722656" xlink:href="#DejaVuSans-45"/>
       <use x="618.806641" xlink:href="#DejaVuSans-56"/>
      </g>
     </g>
    </g>
    <g id="xtick_6">
     <g id="line2d_18">
      <g>
       <use style="stroke:#000000;stroke-width:0.8;" x="213.223265" xlink:href="#m3ead6370b8" y="200.34"/>
      </g>
     </g>
     <g id="text_12">
      <!-- VAEBCE-KNN-1 -->
      <g transform="translate(213.958546 210.026453)rotate(-315)scale(0.05 -0.05)">
       <defs>
        <path d="M 28.609375 0 
L 0.78125 72.90625 
L 11.078125 72.90625 
L 34.1875 11.53125 
L 57.328125 72.90625 
L 67.578125 72.90625 
L 39.796875 0 
z
" id="DejaVuSans-86"/>
       </defs>
       <use xlink:href="#DejaVuSans-86"/>
       <use x="62.033203" xlink:href="#DejaVuSans-65"/>
       <use x="130.441406" xlink:href="#DejaVuSans-69"/>
       <use x="193.625" xlink:href="#DejaVuSans-66"/>
       <use x="260.478516" xlink:href="#DejaVuSans-67"/>
       <use x="330.302734" xlink:href="#DejaVuSans-69"/>
       <use x="393.486328" xlink:href="#DejaVuSans-45"/>
       <use x="429.570312" xlink:href="#DejaVuSans-75"/>
       <use x="495.146484" xlink:href="#DejaVuSans-78"/>
       <use x="569.951172" xlink:href="#DejaVuSans-78"/>
       <use x="644.755859" xlink:href="#DejaVuSans-45"/>
       <use x="680.839844" xlink:href="#DejaVuSans-49"/>
      </g>
     </g>
    </g>
    <g id="xtick_7">
     <g id="line2d_19">
      <g>
       <use style="stroke:#000000;stroke-width:0.8;" x="223.890116" xlink:href="#m3ead6370b8" y="200.34"/>
      </g>
     </g>
     <g id="text_13">
      <!-- Score SVM -->
      <g transform="translate(224.625396 210.026453)rotate(-315)scale(0.05 -0.05)">
       <defs>
        <path d="M 48.78125 52.59375 
L 48.78125 44.1875 
Q 44.96875 46.296875 41.140625 47.34375 
Q 37.3125 48.390625 33.40625 48.390625 
Q 24.65625 48.390625 19.8125 42.84375 
Q 14.984375 37.3125 14.984375 27.296875 
Q 14.984375 17.28125 19.8125 11.734375 
Q 24.65625 6.203125 33.40625 6.203125 
Q 37.3125 6.203125 41.140625 7.25 
Q 44.96875 8.296875 48.78125 10.40625 
L 48.78125 2.09375 
Q 45.015625 0.34375 40.984375 -0.53125 
Q 36.96875 -1.421875 32.421875 -1.421875 
Q 20.0625 -1.421875 12.78125 6.34375 
Q 5.515625 14.109375 5.515625 27.296875 
Q 5.515625 40.671875 12.859375 48.328125 
Q 20.21875 56 33.015625 56 
Q 37.15625 56 41.109375 55.140625 
Q 45.0625 54.296875 48.78125 52.59375 
z
" id="DejaVuSans-99"/>
       </defs>
       <use xlink:href="#DejaVuSans-83"/>
       <use x="63.476562" xlink:href="#DejaVuSans-99"/>
       <use x="118.457031" xlink:href="#DejaVuSans-111"/>
       <use x="179.638672" xlink:href="#DejaVuSans-114"/>
       <use x="218.501953" xlink:href="#DejaVuSans-101"/>
       <use x="280.025391" xlink:href="#DejaVuSans-32"/>
       <use x="311.8125" xlink:href="#DejaVuSans-83"/>
       <use x="375.289062" xlink:href="#DejaVuSans-86"/>
       <use x="443.697266" xlink:href="#DejaVuSans-77"/>
      </g>
     </g>
    </g>
    <g id="xtick_8">
     <g id="line2d_20">
      <g>
       <use style="stroke:#000000;stroke-width:0.8;" x="234.556967" xlink:href="#m3ead6370b8" y="200.34"/>
      </g>
     </g>
     <g id="text_14">
      <!-- Reconst. AEBCE -->
      <g transform="translate(235.292247 210.026453)rotate(-315)scale(0.05 -0.05)">
       <defs>
        <path d="M 44.390625 34.1875 
Q 47.5625 33.109375 50.5625 29.59375 
Q 53.5625 26.078125 56.59375 19.921875 
L 66.609375 0 
L 56 0 
L 46.6875 18.703125 
Q 43.0625 26.03125 39.671875 28.421875 
Q 36.28125 30.8125 30.421875 30.8125 
L 19.671875 30.8125 
L 19.671875 0 
L 9.8125 0 
L 9.8125 72.90625 
L 32.078125 72.90625 
Q 44.578125 72.90625 50.734375 67.671875 
Q 56.890625 62.453125 56.890625 51.90625 
Q 56.890625 45.015625 53.6875 40.46875 
Q 50.484375 35.9375 44.390625 34.1875 
z
M 19.671875 64.796875 
L 19.671875 38.921875 
L 32.078125 38.921875 
Q 39.203125 38.921875 42.84375 42.21875 
Q 46.484375 45.515625 46.484375 51.90625 
Q 46.484375 58.296875 42.84375 61.546875 
Q 39.203125 64.796875 32.078125 64.796875 
z
" id="DejaVuSans-82"/>
        <path d="M 54.890625 33.015625 
L 54.890625 0 
L 45.90625 0 
L 45.90625 32.71875 
Q 45.90625 40.484375 42.875 44.328125 
Q 39.84375 48.1875 33.796875 48.1875 
Q 26.515625 48.1875 22.3125 43.546875 
Q 18.109375 38.921875 18.109375 30.90625 
L 18.109375 0 
L 9.078125 0 
L 9.078125 54.6875 
L 18.109375 54.6875 
L 18.109375 46.1875 
Q 21.34375 51.125 25.703125 53.5625 
Q 30.078125 56 35.796875 56 
Q 45.21875 56 50.046875 50.171875 
Q 54.890625 44.34375 54.890625 33.015625 
z
" id="DejaVuSans-110"/>
       </defs>
       <use xlink:href="#DejaVuSans-82"/>
       <use x="64.982422" xlink:href="#DejaVuSans-101"/>
       <use x="126.505859" xlink:href="#DejaVuSans-99"/>
       <use x="181.486328" xlink:href="#DejaVuSans-111"/>
       <use x="242.667969" xlink:href="#DejaVuSans-110"/>
       <use x="306.046875" xlink:href="#DejaVuSans-115"/>
       <use x="358.146484" xlink:href="#DejaVuSans-116"/>
       <use x="397.355469" xlink:href="#DejaVuSans-46"/>
       <use x="429.142578" xlink:href="#DejaVuSans-32"/>
       <use x="460.929688" xlink:href="#DejaVuSans-65"/>
       <use x="529.337891" xlink:href="#DejaVuSans-69"/>
       <use x="592.521484" xlink:href="#DejaVuSans-66"/>
       <use x="659.375" xlink:href="#DejaVuSans-67"/>
       <use x="729.199219" xlink:href="#DejaVuSans-69"/>
      </g>
     </g>
    </g>
    <g id="xtick_9">
     <g id="line2d_21">
      <g>
       <use style="stroke:#000000;stroke-width:0.8;" x="245.223817" xlink:href="#m3ead6370b8" y="200.34"/>
      </g>
     </g>
     <g id="text_15">
      <!-- AEMSE-KNN-8 -->
      <g transform="translate(245.959098 210.026453)rotate(-315)scale(0.05 -0.05)">
       <use xlink:href="#DejaVuSans-65"/>
       <use x="68.408203" xlink:href="#DejaVuSans-69"/>
       <use x="131.591797" xlink:href="#DejaVuSans-77"/>
       <use x="217.871094" xlink:href="#DejaVuSans-83"/>
       <use x="281.347656" xlink:href="#DejaVuSans-69"/>
       <use x="344.53125" xlink:href="#DejaVuSans-45"/>
       <use x="380.615234" xlink:href="#DejaVuSans-75"/>
       <use x="446.191406" xlink:href="#DejaVuSans-78"/>
       <use x="520.996094" xlink:href="#DejaVuSans-78"/>
       <use x="595.800781" xlink:href="#DejaVuSans-45"/>
       <use x="631.884766" xlink:href="#DejaVuSans-56"/>
      </g>
     </g>
    </g>
    <g id="xtick_10">
     <g id="line2d_22">
      <g>
       <use style="stroke:#000000;stroke-width:0.8;" x="255.890668" xlink:href="#m3ead6370b8" y="200.34"/>
      </g>
     </g>
     <g id="text_16">
      <!-- Reconst. VAEBCE -->
      <g transform="translate(256.625948 210.026453)rotate(-315)scale(0.05 -0.05)">
       <use xlink:href="#DejaVuSans-82"/>
       <use x="64.982422" xlink:href="#DejaVuSans-101"/>
       <use x="126.505859" xlink:href="#DejaVuSans-99"/>
       <use x="181.486328" xlink:href="#DejaVuSans-111"/>
       <use x="242.667969" xlink:href="#DejaVuSans-110"/>
       <use x="306.046875" xlink:href="#DejaVuSans-115"/>
       <use x="358.146484" xlink:href="#DejaVuSans-116"/>
       <use x="397.355469" xlink:href="#DejaVuSans-46"/>
       <use x="429.142578" xlink:href="#DejaVuSans-32"/>
       <use x="460.929688" xlink:href="#DejaVuSans-86"/>
       <use x="522.962891" xlink:href="#DejaVuSans-65"/>
       <use x="591.371094" xlink:href="#DejaVuSans-69"/>
       <use x="654.554688" xlink:href="#DejaVuSans-66"/>
       <use x="721.408203" xlink:href="#DejaVuSans-67"/>
       <use x="791.232422" xlink:href="#DejaVuSans-69"/>
      </g>
     </g>
    </g>
    <g id="xtick_11">
     <g id="line2d_23">
      <g>
       <use style="stroke:#000000;stroke-width:0.8;" x="266.557519" xlink:href="#m3ead6370b8" y="200.34"/>
      </g>
     </g>
     <g id="text_17">
      <!-- Reconst. AEMSE -->
      <g transform="translate(267.292799 210.026453)rotate(-315)scale(0.05 -0.05)">
       <use xlink:href="#DejaVuSans-82"/>
       <use x="64.982422" xlink:href="#DejaVuSans-101"/>
       <use x="126.505859" xlink:href="#DejaVuSans-99"/>
       <use x="181.486328" xlink:href="#DejaVuSans-111"/>
       <use x="242.667969" xlink:href="#DejaVuSans-110"/>
       <use x="306.046875" xlink:href="#DejaVuSans-115"/>
       <use x="358.146484" xlink:href="#DejaVuSans-116"/>
       <use x="397.355469" xlink:href="#DejaVuSans-46"/>
       <use x="429.142578" xlink:href="#DejaVuSans-32"/>
       <use x="460.929688" xlink:href="#DejaVuSans-65"/>
       <use x="529.337891" xlink:href="#DejaVuSans-69"/>
       <use x="592.521484" xlink:href="#DejaVuSans-77"/>
       <use x="678.800781" xlink:href="#DejaVuSans-83"/>
       <use x="742.277344" xlink:href="#DejaVuSans-69"/>
      </g>
     </g>
    </g>
    <g id="xtick_12">
     <g id="line2d_24">
      <g>
       <use style="stroke:#000000;stroke-width:0.8;" x="277.224369" xlink:href="#m3ead6370b8" y="200.34"/>
      </g>
     </g>
     <g id="text_18">
      <!-- VAEMSE-KNN-1 -->
      <g transform="translate(277.95965 210.026453)rotate(-315)scale(0.05 -0.05)">
       <use xlink:href="#DejaVuSans-86"/>
       <use x="62.033203" xlink:href="#DejaVuSans-65"/>
       <use x="130.441406" xlink:href="#DejaVuSans-69"/>
       <use x="193.625" xlink:href="#DejaVuSans-77"/>
       <use x="279.904297" xlink:href="#DejaVuSans-83"/>
       <use x="343.380859" xlink:href="#DejaVuSans-69"/>
       <use x="406.564453" xlink:href="#DejaVuSans-45"/>
       <use x="442.648438" xlink:href="#DejaVuSans-75"/>
       <use x="508.224609" xlink:href="#DejaVuSans-78"/>
       <use x="583.029297" xlink:href="#DejaVuSans-78"/>
       <use x="657.833984" xlink:href="#DejaVuSans-45"/>
       <use x="693.917969" xlink:href="#DejaVuSans-49"/>
      </g>
     </g>
    </g>
    <g id="xtick_13">
     <g id="line2d_25">
      <g>
       <use style="stroke:#000000;stroke-width:0.8;" x="287.89122" xlink:href="#m3ead6370b8" y="200.34"/>
      </g>
     </g>
     <g id="text_19">
      <!-- KNN-1 -->
      <g transform="translate(288.6265 210.026453)rotate(-315)scale(0.05 -0.05)">
       <use xlink:href="#DejaVuSans-75"/>
       <use x="65.576172" xlink:href="#DejaVuSans-78"/>
       <use x="140.380859" xlink:href="#DejaVuSans-78"/>
       <use x="215.185547" xlink:href="#DejaVuSans-45"/>
       <use x="251.269531" xlink:href="#DejaVuSans-49"/>
      </g>
     </g>
    </g>
    <g id="xtick_14">
     <g id="line2d_26">
      <g>
       <use style="stroke:#000000;stroke-width:0.8;" x="298.558071" xlink:href="#m3ead6370b8" y="200.34"/>
      </g>
     </g>
     <g id="text_20">
      <!-- Reconst. VAEMSE -->
      <g transform="translate(299.293351 210.026453)rotate(-315)scale(0.05 -0.05)">
       <use xlink:href="#DejaVuSans-82"/>
       <use x="64.982422" xlink:href="#DejaVuSans-101"/>
       <use x="126.505859" xlink:href="#DejaVuSans-99"/>
       <use x="181.486328" xlink:href="#DejaVuSans-111"/>
       <use x="242.667969" xlink:href="#DejaVuSans-110"/>
       <use x="306.046875" xlink:href="#DejaVuSans-115"/>
       <use x="358.146484" xlink:href="#DejaVuSans-116"/>
       <use x="397.355469" xlink:href="#DejaVuSans-46"/>
       <use x="429.142578" xlink:href="#DejaVuSans-32"/>
       <use x="460.929688" xlink:href="#DejaVuSans-86"/>
       <use x="522.962891" xlink:href="#DejaVuSans-65"/>
       <use x="591.371094" xlink:href="#DejaVuSans-69"/>
       <use x="654.554688" xlink:href="#DejaVuSans-77"/>
       <use x="740.833984" xlink:href="#DejaVuSans-83"/>
       <use x="804.310547" xlink:href="#DejaVuSans-69"/>
      </g>
     </g>
    </g>
    <g id="xtick_15">
     <g id="line2d_27">
      <g>
       <use style="stroke:#000000;stroke-width:0.8;" x="309.224921" xlink:href="#m3ead6370b8" y="200.34"/>
      </g>
     </g>
     <g id="text_21">
      <!-- VAEBCE-KNN-8 -->
      <g transform="translate(309.960202 210.026453)rotate(-315)scale(0.05 -0.05)">
       <use xlink:href="#DejaVuSans-86"/>
       <use x="62.033203" xlink:href="#DejaVuSans-65"/>
       <use x="130.441406" xlink:href="#DejaVuSans-69"/>
       <use x="193.625" xlink:href="#DejaVuSans-66"/>
       <use x="260.478516" xlink:href="#DejaVuSans-67"/>
       <use x="330.302734" xlink:href="#DejaVuSans-69"/>
       <use x="393.486328" xlink:href="#DejaVuSans-45"/>
       <use x="429.570312" xlink:href="#DejaVuSans-75"/>
       <use x="495.146484" xlink:href="#DejaVuSans-78"/>
       <use x="569.951172" xlink:href="#DejaVuSans-78"/>
       <use x="644.755859" xlink:href="#DejaVuSans-45"/>
       <use x="680.839844" xlink:href="#DejaVuSans-56"/>
      </g>
     </g>
    </g>
    <g id="xtick_16">
     <g id="line2d_28">
      <g>
       <use style="stroke:#000000;stroke-width:0.8;" x="319.891772" xlink:href="#m3ead6370b8" y="200.34"/>
      </g>
     </g>
     <g id="text_22">
      <!-- VAEMSE-KNN-8 -->
      <g transform="translate(320.627053 210.026453)rotate(-315)scale(0.05 -0.05)">
       <use xlink:href="#DejaVuSans-86"/>
       <use x="62.033203" xlink:href="#DejaVuSans-65"/>
       <use x="130.441406" xlink:href="#DejaVuSans-69"/>
       <use x="193.625" xlink:href="#DejaVuSans-77"/>
       <use x="279.904297" xlink:href="#DejaVuSans-83"/>
       <use x="343.380859" xlink:href="#DejaVuSans-69"/>
       <use x="406.564453" xlink:href="#DejaVuSans-45"/>
       <use x="442.648438" xlink:href="#DejaVuSans-75"/>
       <use x="508.224609" xlink:href="#DejaVuSans-78"/>
       <use x="583.029297" xlink:href="#DejaVuSans-78"/>
       <use x="657.833984" xlink:href="#DejaVuSans-45"/>
       <use x="693.917969" xlink:href="#DejaVuSans-56"/>
      </g>
     </g>
    </g>
    <g id="xtick_17">
     <g id="line2d_29">
      <g>
       <use style="stroke:#000000;stroke-width:0.8;" x="330.558623" xlink:href="#m3ead6370b8" y="200.34"/>
      </g>
     </g>
     <g id="text_23">
      <!-- Feature knn -->
      <g transform="translate(331.293903 210.026453)rotate(-315)scale(0.05 -0.05)">
       <defs>
        <path d="M 9.8125 72.90625 
L 51.703125 72.90625 
L 51.703125 64.59375 
L 19.671875 64.59375 
L 19.671875 43.109375 
L 48.578125 43.109375 
L 48.578125 34.8125 
L 19.671875 34.8125 
L 19.671875 0 
L 9.8125 0 
z
" id="DejaVuSans-70"/>
        <path d="M 34.28125 27.484375 
Q 23.390625 27.484375 19.1875 25 
Q 14.984375 22.515625 14.984375 16.5 
Q 14.984375 11.71875 18.140625 8.90625 
Q 21.296875 6.109375 26.703125 6.109375 
Q 34.1875 6.109375 38.703125 11.40625 
Q 43.21875 16.703125 43.21875 25.484375 
L 43.21875 27.484375 
z
M 52.203125 31.203125 
L 52.203125 0 
L 43.21875 0 
L 43.21875 8.296875 
Q 40.140625 3.328125 35.546875 0.953125 
Q 30.953125 -1.421875 24.3125 -1.421875 
Q 15.921875 -1.421875 10.953125 3.296875 
Q 6 8.015625 6 15.921875 
Q 6 25.140625 12.171875 29.828125 
Q 18.359375 34.515625 30.609375 34.515625 
L 43.21875 34.515625 
L 43.21875 35.40625 
Q 43.21875 41.609375 39.140625 45 
Q 35.0625 48.390625 27.6875 48.390625 
Q 23 48.390625 18.546875 47.265625 
Q 14.109375 46.140625 10.015625 43.890625 
L 10.015625 52.203125 
Q 14.9375 54.109375 19.578125 55.046875 
Q 24.21875 56 28.609375 56 
Q 40.484375 56 46.34375 49.84375 
Q 52.203125 43.703125 52.203125 31.203125 
z
" id="DejaVuSans-97"/>
        <path d="M 8.5 21.578125 
L 8.5 54.6875 
L 17.484375 54.6875 
L 17.484375 21.921875 
Q 17.484375 14.15625 20.5 10.265625 
Q 23.53125 6.390625 29.59375 6.390625 
Q 36.859375 6.390625 41.078125 11.03125 
Q 45.3125 15.671875 45.3125 23.6875 
L 45.3125 54.6875 
L 54.296875 54.6875 
L 54.296875 0 
L 45.3125 0 
L 45.3125 8.40625 
Q 42.046875 3.421875 37.71875 1 
Q 33.40625 -1.421875 27.6875 -1.421875 
Q 18.265625 -1.421875 13.375 4.4375 
Q 8.5 10.296875 8.5 21.578125 
z
M 31.109375 56 
z
" id="DejaVuSans-117"/>
        <path d="M 9.078125 75.984375 
L 18.109375 75.984375 
L 18.109375 31.109375 
L 44.921875 54.6875 
L 56.390625 54.6875 
L 27.390625 29.109375 
L 57.625 0 
L 45.90625 0 
L 18.109375 26.703125 
L 18.109375 0 
L 9.078125 0 
z
" id="DejaVuSans-107"/>
       </defs>
       <use xlink:href="#DejaVuSans-70"/>
       <use x="52.019531" xlink:href="#DejaVuSans-101"/>
       <use x="113.542969" xlink:href="#DejaVuSans-97"/>
       <use x="174.822266" xlink:href="#DejaVuSans-116"/>
       <use x="214.03125" xlink:href="#DejaVuSans-117"/>
       <use x="277.410156" xlink:href="#DejaVuSans-114"/>
       <use x="316.273438" xlink:href="#DejaVuSans-101"/>
       <use x="377.796875" xlink:href="#DejaVuSans-32"/>
       <use x="409.583984" xlink:href="#DejaVuSans-107"/>
       <use x="467.494141" xlink:href="#DejaVuSans-110"/>
       <use x="530.873047" xlink:href="#DejaVuSans-110"/>
      </g>
     </g>
    </g>
    <g id="xtick_18">
     <g id="line2d_30">
      <g>
       <use style="stroke:#000000;stroke-width:0.8;" x="341.225473" xlink:href="#m3ead6370b8" y="200.34"/>
      </g>
     </g>
     <g id="text_24">
      <!-- Mahalanobis -->
      <g transform="translate(341.960754 210.026453)rotate(-315)scale(0.05 -0.05)">
       <defs>
        <path d="M 9.421875 54.6875 
L 18.40625 54.6875 
L 18.40625 0 
L 9.421875 0 
z
M 9.421875 75.984375 
L 18.40625 75.984375 
L 18.40625 64.59375 
L 9.421875 64.59375 
z
" id="DejaVuSans-105"/>
       </defs>
       <use xlink:href="#DejaVuSans-77"/>
       <use x="86.279297" xlink:href="#DejaVuSans-97"/>
       <use x="147.558594" xlink:href="#DejaVuSans-104"/>
       <use x="210.9375" xlink:href="#DejaVuSans-97"/>
       <use x="272.216797" xlink:href="#DejaVuSans-108"/>
       <use x="300" xlink:href="#DejaVuSans-97"/>
       <use x="361.279297" xlink:href="#DejaVuSans-110"/>
       <use x="424.658203" xlink:href="#DejaVuSans-111"/>
       <use x="485.839844" xlink:href="#DejaVuSans-98"/>
       <use x="549.316406" xlink:href="#DejaVuSans-105"/>
       <use x="577.099609" xlink:href="#DejaVuSans-115"/>
      </g>
     </g>
    </g>
    <g id="xtick_19">
     <g id="line2d_31">
      <g>
       <use style="stroke:#000000;stroke-width:0.8;" x="351.892324" xlink:href="#m3ead6370b8" y="200.34"/>
      </g>
     </g>
     <g id="text_25">
      <!-- KNN-8 -->
      <g transform="translate(352.627605 210.026453)rotate(-315)scale(0.05 -0.05)">
       <use xlink:href="#DejaVuSans-75"/>
       <use x="65.576172" xlink:href="#DejaVuSans-78"/>
       <use x="140.380859" xlink:href="#DejaVuSans-78"/>
       <use x="215.185547" xlink:href="#DejaVuSans-45"/>
       <use x="251.269531" xlink:href="#DejaVuSans-56"/>
      </g>
     </g>
    </g>
    <g id="xtick_20">
     <g id="line2d_32">
      <g>
       <use style="stroke:#000000;stroke-width:0.8;" x="362.559175" xlink:href="#m3ead6370b8" y="200.34"/>
      </g>
     </g>
     <g id="text_26">
      <!-- Binary classifier -->
      <g transform="translate(363.294455 210.026453)rotate(-315)scale(0.05 -0.05)">
       <defs>
        <path d="M 32.171875 -5.078125 
Q 28.375 -14.84375 24.75 -17.8125 
Q 21.140625 -20.796875 15.09375 -20.796875 
L 7.90625 -20.796875 
L 7.90625 -13.28125 
L 13.1875 -13.28125 
Q 16.890625 -13.28125 18.9375 -11.515625 
Q 21 -9.765625 23.484375 -3.21875 
L 25.09375 0.875 
L 2.984375 54.6875 
L 12.5 54.6875 
L 29.59375 11.921875 
L 46.6875 54.6875 
L 56.203125 54.6875 
z
" id="DejaVuSans-121"/>
        <path d="M 37.109375 75.984375 
L 37.109375 68.5 
L 28.515625 68.5 
Q 23.6875 68.5 21.796875 66.546875 
Q 19.921875 64.59375 19.921875 59.515625 
L 19.921875 54.6875 
L 34.71875 54.6875 
L 34.71875 47.703125 
L 19.921875 47.703125 
L 19.921875 0 
L 10.890625 0 
L 10.890625 47.703125 
L 2.296875 47.703125 
L 2.296875 54.6875 
L 10.890625 54.6875 
L 10.890625 58.5 
Q 10.890625 67.625 15.140625 71.796875 
Q 19.390625 75.984375 28.609375 75.984375 
z
" id="DejaVuSans-102"/>
       </defs>
       <use xlink:href="#DejaVuSans-66"/>
       <use x="68.603516" xlink:href="#DejaVuSans-105"/>
       <use x="96.386719" xlink:href="#DejaVuSans-110"/>
       <use x="159.765625" xlink:href="#DejaVuSans-97"/>
       <use x="221.044922" xlink:href="#DejaVuSans-114"/>
       <use x="262.158203" xlink:href="#DejaVuSans-121"/>
       <use x="321.337891" xlink:href="#DejaVuSans-32"/>
       <use x="353.125" xlink:href="#DejaVuSans-99"/>
       <use x="408.105469" xlink:href="#DejaVuSans-108"/>
       <use x="435.888672" xlink:href="#DejaVuSans-97"/>
       <use x="497.167969" xlink:href="#DejaVuSans-115"/>
       <use x="549.267578" xlink:href="#DejaVuSans-115"/>
       <use x="601.367188" xlink:href="#DejaVuSans-105"/>
       <use x="629.150391" xlink:href="#DejaVuSans-102"/>
       <use x="664.355469" xlink:href="#DejaVuSans-105"/>
       <use x="692.138672" xlink:href="#DejaVuSans-101"/>
       <use x="753.662109" xlink:href="#DejaVuSans-114"/>
      </g>
     </g>
    </g>
    <g id="xtick_21">
     <g id="line2d_33">
      <g>
       <use style="stroke:#000000;stroke-width:0.8;" x="373.226025" xlink:href="#m3ead6370b8" y="200.34"/>
      </g>
     </g>
     <g id="text_27">
      <!-- Single layer Maha. -->
      <g transform="translate(373.961306 210.026453)rotate(-315)scale(0.05 -0.05)">
       <defs>
        <path d="M 45.40625 27.984375 
Q 45.40625 37.75 41.375 43.109375 
Q 37.359375 48.484375 30.078125 48.484375 
Q 22.859375 48.484375 18.828125 43.109375 
Q 14.796875 37.75 14.796875 27.984375 
Q 14.796875 18.265625 18.828125 12.890625 
Q 22.859375 7.515625 30.078125 7.515625 
Q 37.359375 7.515625 41.375 12.890625 
Q 45.40625 18.265625 45.40625 27.984375 
z
M 54.390625 6.78125 
Q 54.390625 -7.171875 48.1875 -13.984375 
Q 42 -20.796875 29.203125 -20.796875 
Q 24.46875 -20.796875 20.265625 -20.09375 
Q 16.0625 -19.390625 12.109375 -17.921875 
L 12.109375 -9.1875 
Q 16.0625 -11.328125 19.921875 -12.34375 
Q 23.78125 -13.375 27.78125 -13.375 
Q 36.625 -13.375 41.015625 -8.765625 
Q 45.40625 -4.15625 45.40625 5.171875 
L 45.40625 9.625 
Q 42.625 4.78125 38.28125 2.390625 
Q 33.9375 0 27.875 0 
Q 17.828125 0 11.671875 7.65625 
Q 5.515625 15.328125 5.515625 27.984375 
Q 5.515625 40.671875 11.671875 48.328125 
Q 17.828125 56 27.875 56 
Q 33.9375 56 38.28125 53.609375 
Q 42.625 51.21875 45.40625 46.390625 
L 45.40625 54.6875 
L 54.390625 54.6875 
z
" id="DejaVuSans-103"/>
       </defs>
       <use xlink:href="#DejaVuSans-83"/>
       <use x="63.476562" xlink:href="#DejaVuSans-105"/>
       <use x="91.259766" xlink:href="#DejaVuSans-110"/>
       <use x="154.638672" xlink:href="#DejaVuSans-103"/>
       <use x="218.115234" xlink:href="#DejaVuSans-108"/>
       <use x="245.898438" xlink:href="#DejaVuSans-101"/>
       <use x="307.421875" xlink:href="#DejaVuSans-32"/>
       <use x="339.208984" xlink:href="#DejaVuSans-108"/>
       <use x="366.992188" xlink:href="#DejaVuSans-97"/>
       <use x="428.271484" xlink:href="#DejaVuSans-121"/>
       <use x="487.451172" xlink:href="#DejaVuSans-101"/>
       <use x="548.974609" xlink:href="#DejaVuSans-114"/>
       <use x="590.087891" xlink:href="#DejaVuSans-32"/>
       <use x="621.875" xlink:href="#DejaVuSans-77"/>
       <use x="708.154297" xlink:href="#DejaVuSans-97"/>
       <use x="769.433594" xlink:href="#DejaVuSans-104"/>
       <use x="832.8125" xlink:href="#DejaVuSans-97"/>
       <use x="894.091797" xlink:href="#DejaVuSans-46"/>
      </g>
     </g>
    </g>
    <g id="xtick_22">
     <g id="line2d_34">
      <g>
       <use style="stroke:#000000;stroke-width:0.8;" x="383.892876" xlink:href="#m3ead6370b8" y="200.34"/>
      </g>
     </g>
     <g id="text_28">
      <!-- RETO -->
      <g transform="translate(384.628157 210.026453)rotate(-315)scale(0.05 -0.05)">
       <defs>
        <path d="M -0.296875 72.90625 
L 61.375 72.90625 
L 61.375 64.59375 
L 35.5 64.59375 
L 35.5 0 
L 25.59375 0 
L 25.59375 64.59375 
L -0.296875 64.59375 
z
" id="DejaVuSans-84"/>
       </defs>
       <use xlink:href="#DejaVuSans-82"/>
       <use x="69.482422" xlink:href="#DejaVuSans-69"/>
       <use x="132.666016" xlink:href="#DejaVuSans-84"/>
       <use x="193.75" xlink:href="#DejaVuSans-79"/>
      </g>
     </g>
    </g>
    <g id="xtick_23">
     <g id="line2d_35">
      <g>
       <use style="stroke:#000000;stroke-width:0.8;" x="394.559727" xlink:href="#m3ead6370b8" y="200.34"/>
      </g>
     </g>
     <g id="text_29">
      <!-- RETO(pretrained) -->
      <g transform="translate(395.295007 210.026453)rotate(-315)scale(0.05 -0.05)">
       <defs>
        <path d="M 31 75.875 
Q 24.46875 64.65625 21.28125 53.65625 
Q 18.109375 42.671875 18.109375 31.390625 
Q 18.109375 20.125 21.3125 9.0625 
Q 24.515625 -2 31 -13.1875 
L 23.1875 -13.1875 
Q 15.875 -1.703125 12.234375 9.375 
Q 8.59375 20.453125 8.59375 31.390625 
Q 8.59375 42.28125 12.203125 53.3125 
Q 15.828125 64.359375 23.1875 75.875 
z
" id="DejaVuSans-40"/>
        <path d="M 18.109375 8.203125 
L 18.109375 -20.796875 
L 9.078125 -20.796875 
L 9.078125 54.6875 
L 18.109375 54.6875 
L 18.109375 46.390625 
Q 20.953125 51.265625 25.265625 53.625 
Q 29.59375 56 35.59375 56 
Q 45.5625 56 51.78125 48.09375 
Q 58.015625 40.1875 58.015625 27.296875 
Q 58.015625 14.40625 51.78125 6.484375 
Q 45.5625 -1.421875 35.59375 -1.421875 
Q 29.59375 -1.421875 25.265625 0.953125 
Q 20.953125 3.328125 18.109375 8.203125 
z
M 48.6875 27.296875 
Q 48.6875 37.203125 44.609375 42.84375 
Q 40.53125 48.484375 33.40625 48.484375 
Q 26.265625 48.484375 22.1875 42.84375 
Q 18.109375 37.203125 18.109375 27.296875 
Q 18.109375 17.390625 22.1875 11.75 
Q 26.265625 6.109375 33.40625 6.109375 
Q 40.53125 6.109375 44.609375 11.75 
Q 48.6875 17.390625 48.6875 27.296875 
z
" id="DejaVuSans-112"/>
        <path d="M 8.015625 75.875 
L 15.828125 75.875 
Q 23.140625 64.359375 26.78125 53.3125 
Q 30.421875 42.28125 30.421875 31.390625 
Q 30.421875 20.453125 26.78125 9.375 
Q 23.140625 -1.703125 15.828125 -13.1875 
L 8.015625 -13.1875 
Q 14.5 -2 17.703125 9.0625 
Q 20.90625 20.125 20.90625 31.390625 
Q 20.90625 42.671875 17.703125 53.65625 
Q 14.5 64.65625 8.015625 75.875 
z
" id="DejaVuSans-41"/>
       </defs>
       <use xlink:href="#DejaVuSans-82"/>
       <use x="69.482422" xlink:href="#DejaVuSans-69"/>
       <use x="132.666016" xlink:href="#DejaVuSans-84"/>
       <use x="193.75" xlink:href="#DejaVuSans-79"/>
       <use x="272.460938" xlink:href="#DejaVuSans-40"/>
       <use x="311.474609" xlink:href="#DejaVuSans-112"/>
       <use x="374.951172" xlink:href="#DejaVuSans-114"/>
       <use x="413.814453" xlink:href="#DejaVuSans-101"/>
       <use x="475.337891" xlink:href="#DejaVuSans-116"/>
       <use x="514.546875" xlink:href="#DejaVuSans-114"/>
       <use x="555.660156" xlink:href="#DejaVuSans-97"/>
       <use x="616.939453" xlink:href="#DejaVuSans-105"/>
       <use x="644.722656" xlink:href="#DejaVuSans-110"/>
       <use x="708.101562" xlink:href="#DejaVuSans-101"/>
       <use x="769.625" xlink:href="#DejaVuSans-100"/>
       <use x="833.101562" xlink:href="#DejaVuSans-41"/>
      </g>
     </g>
    </g>
   </g>
   <g id="matplotlib.axis_6">
    <g id="ytick_7">
     <g id="line2d_36">
      <g>
       <use style="stroke:#000000;stroke-width:0.8;" x="410.4" xlink:href="#mf7136915ad" y="185.672812"/>
      </g>
     </g>
     <g id="text_30">
      <!-- 50 -->
      <g transform="translate(417.4 187.572422)scale(0.05 -0.05)">
       <use xlink:href="#DejaVuSans-53"/>
       <use x="63.623047" xlink:href="#DejaVuSans-48"/>
      </g>
     </g>
    </g>
    <g id="ytick_8">
     <g id="line2d_37">
      <g>
       <use style="stroke:#000000;stroke-width:0.8;" x="410.4" xlink:href="#mf7136915ad" y="167.338828"/>
      </g>
     </g>
     <g id="text_31">
      <!-- 75 -->
      <g transform="translate(417.4 169.238437)scale(0.05 -0.05)">
       <use xlink:href="#DejaVuSans-55"/>
       <use x="63.623047" xlink:href="#DejaVuSans-53"/>
      </g>
     </g>
    </g>
    <g id="ytick_9">
     <g id="line2d_38">
      <g>
       <use style="stroke:#000000;stroke-width:0.8;" x="410.4" xlink:href="#mf7136915ad" y="149.004844"/>
      </g>
     </g>
     <g id="text_32">
      <!-- 100 -->
      <g transform="translate(417.4 150.904453)scale(0.05 -0.05)">
       <use xlink:href="#DejaVuSans-49"/>
       <use x="63.623047" xlink:href="#DejaVuSans-48"/>
       <use x="127.246094" xlink:href="#DejaVuSans-48"/>
      </g>
     </g>
    </g>
   </g>
   <g id="line2d_39">
    <path clip-path="url(#pa699c9d88f)" d="M 144.048738 185.672812 
L 410.4 185.672812 
" style="fill:none;stroke:#4c4c59;stroke-dasharray:1.85,0.8;stroke-dashoffset:0;stroke-opacity:0.8;stroke-width:0.5;"/>
   </g>
   <g id="line2d_40">
    <path clip-path="url(#pa699c9d88f)" d="M 144.048738 167.338828 
L 410.4 167.338828 
" style="fill:none;stroke:#4c4c59;stroke-dasharray:1.85,0.8;stroke-dashoffset:0;stroke-opacity:0.8;stroke-width:0.5;"/>
   </g>
   <g id="line2d_41">
    <path clip-path="url(#pa699c9d88f)" d="M 144.048738 149.004844 
L 410.4 149.004844 
" style="fill:none;stroke:#4c4c59;stroke-dasharray:1.85,0.8;stroke-dashoffset:0;stroke-opacity:0.8;stroke-width:0.5;"/>
   </g>
   <g id="patch_151">
    <path d="M 144.048738 200.34 
L 144.048738 141.67125 
" style="fill:none;stroke:#4c4c4c;stroke-linecap:square;stroke-linejoin:miter;stroke-opacity:0.8;stroke-width:0.8;"/>
   </g>
   <g id="patch_152">
    <path d="M 410.4 200.34 
L 410.4 141.67125 
" style="fill:none;stroke:#4c4c4c;stroke-linecap:square;stroke-linejoin:miter;stroke-opacity:0.8;stroke-width:0.8;"/>
   </g>
   <g id="patch_153">
    <path d="M 144.048738 200.34 
L 410.4 200.34 
" style="fill:none;stroke:#4c4c4c;stroke-linecap:square;stroke-linejoin:miter;stroke-opacity:0.8;stroke-width:0.8;"/>
   </g>
   <g id="patch_154">
    <path d="M 144.048738 141.67125 
L 410.4 141.67125 
" style="fill:none;stroke:#4c4c4c;stroke-linecap:square;stroke-linejoin:miter;stroke-opacity:0.8;stroke-width:0.8;"/>
   </g>
   <g id="legend_1">
    <g id="patch_155">
     <path d="M 146.548738 158.349375 
L 363.326863 158.349375 
Q 364.326863 158.349375 364.326863 157.349375 
L 364.326863 144.17125 
Q 364.326863 143.17125 363.326863 143.17125 
L 146.548738 143.17125 
Q 145.548738 143.17125 145.548738 144.17125 
L 145.548738 157.349375 
Q 145.548738 158.349375 146.548738 158.349375 
z
" style="fill:#ffffff;opacity:0.8;stroke:#cccccc;stroke-linejoin:miter;"/>
    </g>
    <g id="patch_156">
     <path d="M 147.548738 148.970469 
L 157.548738 148.970469 
L 157.548738 145.470469 
L 147.548738 145.470469 
z
" style="fill:#00cc33;fill-opacity:0.3;"/>
    </g>
    <g id="text_33">
     <!-- AUROC, data-only -->
     <g transform="translate(161.548738 148.970469)scale(0.05 -0.05)">
      <defs>
       <path d="M 8.6875 72.90625 
L 18.609375 72.90625 
L 18.609375 28.609375 
Q 18.609375 16.890625 22.84375 11.734375 
Q 27.09375 6.59375 36.625 6.59375 
Q 46.09375 6.59375 50.34375 11.734375 
Q 54.59375 16.890625 54.59375 28.609375 
L 54.59375 72.90625 
L 64.5 72.90625 
L 64.5 27.390625 
Q 64.5 13.140625 57.4375 5.859375 
Q 50.390625 -1.421875 36.625 -1.421875 
Q 22.796875 -1.421875 15.734375 5.859375 
Q 8.6875 13.140625 8.6875 27.390625 
z
" id="DejaVuSans-85"/>
       <path d="M 11.71875 12.40625 
L 22.015625 12.40625 
L 22.015625 4 
L 14.015625 -11.625 
L 7.71875 -11.625 
L 11.71875 4 
z
" id="DejaVuSans-44"/>
      </defs>
      <use xlink:href="#DejaVuSans-65"/>
      <use x="68.408203" xlink:href="#DejaVuSans-85"/>
      <use x="141.601562" xlink:href="#DejaVuSans-82"/>
      <use x="211.083984" xlink:href="#DejaVuSans-79"/>
      <use x="289.794922" xlink:href="#DejaVuSans-67"/>
      <use x="359.619141" xlink:href="#DejaVuSans-44"/>
      <use x="391.40625" xlink:href="#DejaVuSans-32"/>
      <use x="423.193359" xlink:href="#DejaVuSans-100"/>
      <use x="486.669922" xlink:href="#DejaVuSans-97"/>
      <use x="547.949219" xlink:href="#DejaVuSans-116"/>
      <use x="587.158203" xlink:href="#DejaVuSans-97"/>
      <use x="648.4375" xlink:href="#DejaVuSans-45"/>
      <use x="686.396484" xlink:href="#DejaVuSans-111"/>
      <use x="747.578125" xlink:href="#DejaVuSans-110"/>
      <use x="810.957031" xlink:href="#DejaVuSans-108"/>
      <use x="838.740234" xlink:href="#DejaVuSans-121"/>
     </g>
    </g>
    <g id="patch_157">
     <path d="M 147.548738 155.309531 
L 157.548738 155.309531 
L 157.548738 151.809531 
L 147.548738 151.809531 
z
" style="fill:#00cc33;"/>
    </g>
    <g id="text_34">
     <!-- AUPRC, data-only -->
     <g transform="translate(161.548738 155.309531)scale(0.05 -0.05)">
      <use xlink:href="#DejaVuSans-65"/>
      <use x="68.408203" xlink:href="#DejaVuSans-85"/>
      <use x="141.601562" xlink:href="#DejaVuSans-80"/>
      <use x="201.904297" xlink:href="#DejaVuSans-82"/>
      <use x="266.386719" xlink:href="#DejaVuSans-67"/>
      <use x="336.210938" xlink:href="#DejaVuSans-44"/>
      <use x="367.998047" xlink:href="#DejaVuSans-32"/>
      <use x="399.785156" xlink:href="#DejaVuSans-100"/>
      <use x="463.261719" xlink:href="#DejaVuSans-97"/>
      <use x="524.541016" xlink:href="#DejaVuSans-116"/>
      <use x="563.75" xlink:href="#DejaVuSans-97"/>
      <use x="625.029297" xlink:href="#DejaVuSans-45"/>
      <use x="662.988281" xlink:href="#DejaVuSans-111"/>
      <use x="724.169922" xlink:href="#DejaVuSans-110"/>
      <use x="787.548828" xlink:href="#DejaVuSans-108"/>
      <use x="815.332031" xlink:href="#DejaVuSans-121"/>
     </g>
    </g>
    <g id="patch_158">
     <path d="M 211.444832 148.970469 
L 221.444832 148.970469 
L 221.444832 145.470469 
L 211.444832 145.470469 
z
" style="fill:#1a33e6;fill-opacity:0.3;"/>
    </g>
    <g id="text_35">
     <!-- AUROC, classifier only -->
     <g transform="translate(225.444832 148.970469)scale(0.05 -0.05)">
      <use xlink:href="#DejaVuSans-65"/>
      <use x="68.408203" xlink:href="#DejaVuSans-85"/>
      <use x="141.601562" xlink:href="#DejaVuSans-82"/>
      <use x="211.083984" xlink:href="#DejaVuSans-79"/>
      <use x="289.794922" xlink:href="#DejaVuSans-67"/>
      <use x="359.619141" xlink:href="#DejaVuSans-44"/>
      <use x="391.40625" xlink:href="#DejaVuSans-32"/>
      <use x="423.193359" xlink:href="#DejaVuSans-99"/>
      <use x="478.173828" xlink:href="#DejaVuSans-108"/>
      <use x="505.957031" xlink:href="#DejaVuSans-97"/>
      <use x="567.236328" xlink:href="#DejaVuSans-115"/>
      <use x="619.335938" xlink:href="#DejaVuSans-115"/>
      <use x="671.435547" xlink:href="#DejaVuSans-105"/>
      <use x="699.21875" xlink:href="#DejaVuSans-102"/>
      <use x="734.423828" xlink:href="#DejaVuSans-105"/>
      <use x="762.207031" xlink:href="#DejaVuSans-101"/>
      <use x="823.730469" xlink:href="#DejaVuSans-114"/>
      <use x="864.84375" xlink:href="#DejaVuSans-32"/>
      <use x="896.630859" xlink:href="#DejaVuSans-111"/>
      <use x="957.8125" xlink:href="#DejaVuSans-110"/>
      <use x="1021.191406" xlink:href="#DejaVuSans-108"/>
      <use x="1048.974609" xlink:href="#DejaVuSans-121"/>
     </g>
    </g>
    <g id="patch_159">
     <path d="M 211.444832 155.309531 
L 221.444832 155.309531 
L 221.444832 151.809531 
L 211.444832 151.809531 
z
" style="fill:#1a33e6;"/>
    </g>
    <g id="text_36">
     <!-- AUPRC, classifier only -->
     <g transform="translate(225.444832 155.309531)scale(0.05 -0.05)">
      <use xlink:href="#DejaVuSans-65"/>
      <use x="68.408203" xlink:href="#DejaVuSans-85"/>
      <use x="141.601562" xlink:href="#DejaVuSans-80"/>
      <use x="201.904297" xlink:href="#DejaVuSans-82"/>
      <use x="266.386719" xlink:href="#DejaVuSans-67"/>
      <use x="336.210938" xlink:href="#DejaVuSans-44"/>
      <use x="367.998047" xlink:href="#DejaVuSans-32"/>
      <use x="399.785156" xlink:href="#DejaVuSans-99"/>
      <use x="454.765625" xlink:href="#DejaVuSans-108"/>
      <use x="482.548828" xlink:href="#DejaVuSans-97"/>
      <use x="543.828125" xlink:href="#DejaVuSans-115"/>
      <use x="595.927734" xlink:href="#DejaVuSans-115"/>
      <use x="648.027344" xlink:href="#DejaVuSans-105"/>
      <use x="675.810547" xlink:href="#DejaVuSans-102"/>
      <use x="711.015625" xlink:href="#DejaVuSans-105"/>
      <use x="738.798828" xlink:href="#DejaVuSans-101"/>
      <use x="800.322266" xlink:href="#DejaVuSans-114"/>
      <use x="841.435547" xlink:href="#DejaVuSans-32"/>
      <use x="873.222656" xlink:href="#DejaVuSans-111"/>
      <use x="934.404297" xlink:href="#DejaVuSans-110"/>
      <use x="997.783203" xlink:href="#DejaVuSans-108"/>
      <use x="1025.566406" xlink:href="#DejaVuSans-121"/>
     </g>
    </g>
    <g id="patch_160">
     <path d="M 285.851863 148.970469 
L 295.851863 148.970469 
L 295.851863 145.470469 
L 285.851863 145.470469 
z
" style="fill:#e61a00;fill-opacity:0.3;"/>
    </g>
    <g id="text_37">
     <!-- AUROC, with auxilary NN -->
     <g transform="translate(299.851863 148.970469)scale(0.05 -0.05)">
      <defs>
       <path d="M 4.203125 54.6875 
L 13.1875 54.6875 
L 24.421875 12.015625 
L 35.59375 54.6875 
L 46.1875 54.6875 
L 57.421875 12.015625 
L 68.609375 54.6875 
L 77.59375 54.6875 
L 63.28125 0 
L 52.6875 0 
L 40.921875 44.828125 
L 29.109375 0 
L 18.5 0 
z
" id="DejaVuSans-119"/>
       <path d="M 54.890625 54.6875 
L 35.109375 28.078125 
L 55.90625 0 
L 45.3125 0 
L 29.390625 21.484375 
L 13.484375 0 
L 2.875 0 
L 24.125 28.609375 
L 4.6875 54.6875 
L 15.28125 54.6875 
L 29.78125 35.203125 
L 44.28125 54.6875 
z
" id="DejaVuSans-120"/>
      </defs>
      <use xlink:href="#DejaVuSans-65"/>
      <use x="68.408203" xlink:href="#DejaVuSans-85"/>
      <use x="141.601562" xlink:href="#DejaVuSans-82"/>
      <use x="211.083984" xlink:href="#DejaVuSans-79"/>
      <use x="289.794922" xlink:href="#DejaVuSans-67"/>
      <use x="359.619141" xlink:href="#DejaVuSans-44"/>
      <use x="391.40625" xlink:href="#DejaVuSans-32"/>
      <use x="423.193359" xlink:href="#DejaVuSans-119"/>
      <use x="504.980469" xlink:href="#DejaVuSans-105"/>
      <use x="532.763672" xlink:href="#DejaVuSans-116"/>
      <use x="571.972656" xlink:href="#DejaVuSans-104"/>
      <use x="635.351562" xlink:href="#DejaVuSans-32"/>
      <use x="667.138672" xlink:href="#DejaVuSans-97"/>
      <use x="728.417969" xlink:href="#DejaVuSans-117"/>
      <use x="791.796875" xlink:href="#DejaVuSans-120"/>
      <use x="850.976562" xlink:href="#DejaVuSans-105"/>
      <use x="878.759766" xlink:href="#DejaVuSans-108"/>
      <use x="906.542969" xlink:href="#DejaVuSans-97"/>
      <use x="967.822266" xlink:href="#DejaVuSans-114"/>
      <use x="1008.935547" xlink:href="#DejaVuSans-121"/>
      <use x="1068.115234" xlink:href="#DejaVuSans-32"/>
      <use x="1099.902344" xlink:href="#DejaVuSans-78"/>
      <use x="1174.707031" xlink:href="#DejaVuSans-78"/>
     </g>
    </g>
    <g id="patch_161">
     <path d="M 285.851863 155.309531 
L 295.851863 155.309531 
L 295.851863 151.809531 
L 285.851863 151.809531 
z
" style="fill:#e61a00;"/>
    </g>
    <g id="text_38">
     <!-- AUPRC, with auxilary NN -->
     <g transform="translate(299.851863 155.309531)scale(0.05 -0.05)">
      <use xlink:href="#DejaVuSans-65"/>
      <use x="68.408203" xlink:href="#DejaVuSans-85"/>
      <use x="141.601562" xlink:href="#DejaVuSans-80"/>
      <use x="201.904297" xlink:href="#DejaVuSans-82"/>
      <use x="266.386719" xlink:href="#DejaVuSans-67"/>
      <use x="336.210938" xlink:href="#DejaVuSans-44"/>
      <use x="367.998047" xlink:href="#DejaVuSans-32"/>
      <use x="399.785156" xlink:href="#DejaVuSans-119"/>
      <use x="481.572266" xlink:href="#DejaVuSans-105"/>
      <use x="509.355469" xlink:href="#DejaVuSans-116"/>
      <use x="548.564453" xlink:href="#DejaVuSans-104"/>
      <use x="611.943359" xlink:href="#DejaVuSans-32"/>
      <use x="643.730469" xlink:href="#DejaVuSans-97"/>
      <use x="705.009766" xlink:href="#DejaVuSans-117"/>
      <use x="768.388672" xlink:href="#DejaVuSans-120"/>
      <use x="827.568359" xlink:href="#DejaVuSans-105"/>
      <use x="855.351562" xlink:href="#DejaVuSans-108"/>
      <use x="883.134766" xlink:href="#DejaVuSans-97"/>
      <use x="944.414062" xlink:href="#DejaVuSans-114"/>
      <use x="985.527344" xlink:href="#DejaVuSans-121"/>
      <use x="1044.707031" xlink:href="#DejaVuSans-32"/>
      <use x="1076.494141" xlink:href="#DejaVuSans-78"/>
      <use x="1151.298828" xlink:href="#DejaVuSans-78"/>
     </g>
    </g>
   </g>
  </g>
 </g>
 <defs>
  <clipPath id="p99273c7018">
   <rect height="58.66875" width="266.351262" x="144.048738" y="12.6"/>
  </clipPath>
  <clipPath id="p5a5d8939bc">
   <rect height="58.66875" width="266.351262" x="144.048738" y="77.135625"/>
  </clipPath>
  <clipPath id="pa699c9d88f">
   <rect height="58.66875" width="266.351262" x="144.048738" y="141.67125"/>
  </clipPath>
 </defs>
</svg>
